ISO-10303-21;
HEADER;
FILE_DESCRIPTION(('STEP AP214'),'1');
FILE_NAME('esp32_30pin_CH340.stp','2026-09-13T12:00:00',('Antigravity'),('SKR Electronics Lab'),'FlyRadar32 STEP Engine','OpenSCAD/Python','');
FILE_SCHEMA(('AUTOMOTIVE_DESIGN { 1 0 10303 214 1 1 1 1 }'));
ENDSEC;
DATA;
#1 = APPLICATION_CONTEXT('core data for automotive mechanical design processes');
#2 = APPLICATION_PROTOCOL_DEFINITION('international standard','automotive_design',2000,#1);
#3 = PRODUCT_CONTEXT('part definition',#1,'mechanical');
#4 = PRODUCT('esp32_30pin_CH340','esp32_30pin_CH340','',((#3)));
#5 = PRODUCT_DEFINITION_FORMATION('','',#4);
#6 = PRODUCT_DEFINITION('design','',#5,#3);
#7 = PRODUCT_DEFINITION_SHAPE('','',#6);
#8 = ( LENGTH_UNIT() NAMED_UNIT(*) SI_UNIT(.MILLI.,.METRE.) );
#9 = ( NAMED_UNIT(*) PLANE_ANGLE_UNIT() SI_UNIT($,.RADIAN.) );
#10 = ( NAMED_UNIT(*) SI_UNIT($,.STERADIAN.) SOLID_ANGLE_UNIT() );
#11 = UNCERTAINTY_MEASURE_WITH_UNIT(LENGTH_MEASURE(1.E-05),#8,'distance_accuracy_value','confusion accuracy');
#12 = ( GEOMETRIC_REPRESENTATION_CONTEXT(3) GLOBAL_UNCERTAINTY_ASSIGNED_CONTEXT((#11)) GLOBAL_UNIT_ASSIGNED_CONTEXT((#8,#9,#10)) REPRESENTATION_CONTEXT('Context #1','3D Context with UNIT and UNCERTAINTY') );
#13 = CARTESIAN_POINT('',(0.,0.,0.));
#14 = DIRECTION('',(0.,0.,1.));
#15 = DIRECTION('',(1.,0.,0.));
#16 = AXIS2_PLACEMENT_3D('',#13,#14,#15);
#17 = CARTESIAN_POINT('',(811932685326259502419188201291776.0000,72147976778849634484224.0000,0.0000));
#18 = CARTESIAN_POINT('',(0.0000,0.0000,0.0000));
#19 = CARTESIAN_POINT('',(0.0002,0.0000,0.0000));
#20 = CARTESIAN_POINT('',(0.0000,17727725997760785175053074432.0000,74097953572468138340612308992.0000));
#21 = CARTESIAN_POINT('',(0.0000,17590447654959834988544.0000,67110867228821947416576.0000));
#22 = CARTESIAN_POINT('',(0.0000,77781165350844638724721236508672.0000,775873376154157008688250880.0000));
#23 = CARTESIAN_POINT('',(0.0000,0.0000,811932685326259502419188201291776.0000));
#24 = CARTESIAN_POINT('',(0.0000,0.0000,0.0002));
#25 = CARTESIAN_POINT('',(0.0000,0.0000,4544951783137919923791169847296.0000));
#26 = CARTESIAN_POINT('',(0.0002,0.0002,0.0000));
#27 = CARTESIAN_POINT('',(265624241162776739840.0000,0.0000,189042413411360579780608.0000));
#28 = CARTESIAN_POINT('',(72696021990173396359021057802240.0000,4742403219403938077637580161024.0000,0.0000));
#29 = CARTESIAN_POINT('',(0.0000,76818463870762560303285816786944.0000,0.0000));
#30 = CARTESIAN_POINT('',(0.0000,0.0002,0.0000));
#31 = CARTESIAN_POINT('',(0.0002,0.0000,47260702432031947096064.0000));
#32 = CARTESIAN_POINT('',(73159874360112014797492453376.0000,0.0000,17727725997760785175053074432.0000));
#33 = CARTESIAN_POINT('',(4157895438674188828672.0000,0.0000,265316624197604081664.0000));
#34 = CARTESIAN_POINT('',(0.0000,0.0000,77781165350844638724721236508672.0000));
#35 = CARTESIAN_POINT('',(775873376154157008688250880.0000,0.0000,0.0000));
#36 = CARTESIAN_POINT('',(72643422277456290119680.0000,18615590189516027294330425071108096.0000,0.0000));
#37 = CARTESIAN_POINT('',(4544951783137919923791169847296.0000,0.0000,0.0000));
#38 = CARTESIAN_POINT('',(72696021990173396359021057802240.0000,0.0000,67110867228821947416576.0000));
#39 = CARTESIAN_POINT('',(73696665758219807368933277696.0000,1090100601154995034104266752.0000,0.0000));
#40 = CARTESIAN_POINT('',(0.0002,0.0000,17727725997760785175053074432.0000));
#41 = CARTESIAN_POINT('',(74097953572468138340612308992.0000,0.0000,17590447654959834988544.0000));
#42 = CARTESIAN_POINT('',(67110867228821947416576.0000,0.0000,4157876298375772504064.0000));
#43 = CARTESIAN_POINT('',(0.0000,0.0000,72151480579359728730112.0000));
#44 = CARTESIAN_POINT('',(73077686293844151492193288192.0000,0.0000,0.0000));
#45 = CARTESIAN_POINT('',(12414578481376319453599367168.0000,273757759681993900032.0000,0.0000));
#46 = CARTESIAN_POINT('',(0.0000,0.0000,303127568749594998323036603547648.0000));
#47 = CARTESIAN_POINT('',(17590447654959834988544.0000,296406472515435380741192548352.0000,0.0000));
#48 = CARTESIAN_POINT('',(269683994439846247530496.0000,72696021990173396359021057802240.0000,0.0000));
#49 = CARTESIAN_POINT('',(72151480579359728730112.0000,73077686293844151492193288192.0000,0.0000));
#50 = CARTESIAN_POINT('',(0.0000,72643422277456290119680.0000,18615590189516027294330425071108096.0000));
#51 = CARTESIAN_POINT('',(0.0000,4544951783137919923791169847296.0000,0.0000));
#52 = CARTESIAN_POINT('',(67110867228821947416576.0000,73696665758219807368933277696.0000,1090100601154995034104266752.0000));
#53 = CARTESIAN_POINT('',(0.0000,0.0002,0.0002));
#54 = CARTESIAN_POINT('',(0.0000,0.0000,76818463870762560303285816786944.0000));
#55 = CARTESIAN_POINT('',(0.0000,17590447654959834988544.0000,296406472515435380741192548352.0000));
#56 = CARTESIAN_POINT('',(0.0000,269683994439846247530496.0000,72696021990173396359021057802240.0000));
#57 = CARTESIAN_POINT('',(49556438313370330958202404864.0000,4544822730306676062126769963008.0000,74097632451547303204737777664.0000));
#58 = CARTESIAN_POINT('',(0.0000,0.0000,17590447654959834988544.0000));
#59 = CARTESIAN_POINT('',(296406472515435380741192548352.0000,0.0000,269683994439846247530496.0000));
#60 = CARTESIAN_POINT('',(0.0000,49556438313370330958202404864.0000,4544822730306676062126769963008.0000));
#61 = CARTESIAN_POINT('',(74097632451547303204737777664.0000,0.0000,0.0000));
#62 = CARTESIAN_POINT('',(76818463870762560303285816786944.0000,0.0000,0.0000));
#63 = CARTESIAN_POINT('',(18615590189516027294330425071108096.0000,0.0000,0.0000));
#64 = CARTESIAN_POINT('',(0.0000,189042413411360579780608.0000,72696021990173396359021057802240.0000));
#65 = CARTESIAN_POINT('',(4742403219403938077637580161024.0000,0.0000,0.0000));
#66 = CARTESIAN_POINT('',(72147976778849634484224.0000,0.0000,0.0000));
#67 = CARTESIAN_POINT('',(0.0000,47260702432031947096064.0000,73159874360112014797492453376.0000));
#68 = CARTESIAN_POINT('',(0.0000,17727725997760785175053074432.0000,4157895438674188828672.0000));
#69 = CARTESIAN_POINT('',(0.0000,265316624197604081664.0000,0.0000));
#70 = CARTESIAN_POINT('',(0.0000,0.0000,72643422277456290119680.0000));
#71 = CARTESIAN_POINT('',(0.0000,67110867228821947416576.0000,73696665758219807368933277696.0000));
#72 = CARTESIAN_POINT('',(1090100601154995034104266752.0000,0.0000,0.0000));
#73 = CARTESIAN_POINT('',(189042413411360579780608.0000,72696021990173396359021057802240.0000,4742403219403938077637580161024.0000));
#74 = CARTESIAN_POINT('',(0.0000,72151480579359728730112.0000,73077686293844151492193288192.0000));
#75 = CARTESIAN_POINT('',(0.0000,296406472515435380741192548352.0000,0.0000));
#76 = CARTESIAN_POINT('',(0.0000,1104625641225610229884911616.0000,0.0000));
#77 = CARTESIAN_POINT('',(4157876298375772504064.0000,12414578481376319453599367168.0000,273757759681993900032.0000));
#78 = CARTESIAN_POINT('',(47260702432031947096064.0000,73159874360112014797492453376.0000,0.0000));
#79 = CARTESIAN_POINT('',(77781165350844638724721236508672.0000,775873376154157008688250880.0000,0.0000));
#80 = CARTESIAN_POINT('',(0.0000,47260603352840144945152.0000,265624241162776739840.0000));
#81 = CARTESIAN_POINT('',(0.0000,0.0000,1104625641225610229884911616.0000));
#82 = CARTESIAN_POINT('',(0.0000,303127568749594998323036603547648.0000,0.0000));
#83 = CARTESIAN_POINT('',(296406472515435380741192548352.0000,0.0000,0.0000));
#84 = CARTESIAN_POINT('',(4689380162690990383172681728.0000,0.0000,0.0000));
#85 = CARTESIAN_POINT('',(17727725997760785175053074432.0000,4157895438674188828672.0000,0.0000));
#86 = CARTESIAN_POINT('',(265316624197604081664.0000,0.0000,4689380162690990383172681728.0000));
#87 = CARTESIAN_POINT('',(0.0000,811932685326259502419188201291776.0000,72147976778849634484224.0000));
#88 = CARTESIAN_POINT('',(0.0000,4157876298375772504064.0000,12414578481376319453599367168.0000));
#89 = CARTESIAN_POINT('',(47260603352840144945152.0000,265624241162776739840.0000,0.0000));
#90 = CARTESIAN_POINT('',(303127568749594998323036603547648.0000,0.0000,296406472515435380741192548352.0000));
#91 = CARTESIAN_POINT('',(0.0000,0.0000,47260702432031947096064.0000));
#92 = CARTESIAN_POINT('',(1104625641225610229884911616.0000,0.0000,47260603352840144945152.0000));
#93 = CARTESIAN_POINT('',(4544822730306676062126769963008.0000,74097632451547303204737777664.0000,0.0000));
#94 = CARTESIAN_POINT('',(17727725997760785175053074432.0000,74097953572468138340612308992.0000,0.0000));
#95 = CARTESIAN_POINT('',(17590447654959834988544.0000,67110867228821947416576.0000,0.0000));
#96 = CARTESIAN_POINT('',(0.0000,76818463870762560303285816786944.0000,0.0002));
#97 = CARTESIAN_POINT('',(273757759681993900032.0000,0.0000,0.0000));
#98 = CARTESIAN_POINT('',(76818463870762560303285816786944.0000,0.0002,0.0000));
#99 = CARTESIAN_POINT('',(811932685326259502419188201291776.0000,72147976778849634484224.0000,0.0002));
#100 = CARTESIAN_POINT('',(0.0000,0.0000,49556438313370330958202404864.0000));
#101 = CARTESIAN_POINT('',(0.0000,4689380162690990383172681728.0000,0.0000));
#102 = POLY_LOOP('',(#17,#18,#19));
#103 = FACE_OUTER_BOUND('',#102,.T.);
#104 = DIRECTION('',(0.000000,0.000000,1.000000));
#105 = DIRECTION('',(1.000000,0.000000,0.000000));
#106 = AXIS2_PLACEMENT_3D('',#17,#104,#105);
#107 = PLANE('',#106);
#108 = FACE_SURFACE('',(#103),#107,.T.);
#109 = POLY_LOOP('',(#19,#20,#21));
#110 = FACE_OUTER_BOUND('',#109,.T.);
#111 = DIRECTION('',(1.000000,0.000000,0.000000));
#112 = DIRECTION('',(0.000000,1.000000,0.000000));
#113 = AXIS2_PLACEMENT_3D('',#19,#111,#112);
#114 = PLANE('',#113);
#115 = FACE_SURFACE('',(#110),#114,.T.);
#116 = POLY_LOOP('',(#18,#22,#23));
#117 = FACE_OUTER_BOUND('',#116,.T.);
#118 = DIRECTION('',(0.000000,0.997879,0.065098));
#119 = DIRECTION('',(1.000000,0.000000,0.000000));
#120 = AXIS2_PLACEMENT_3D('',#18,#118,#119);
#121 = PLANE('',#120);
#122 = FACE_SURFACE('',(#117),#121,.T.);
#123 = POLY_LOOP('',(#24,#25,#18));
#124 = FACE_OUTER_BOUND('',#123,.T.);
#125 = DIRECTION('',(0.000000,0.000000,1.000000));
#126 = DIRECTION('',(1.000000,0.000000,0.000000));
#127 = AXIS2_PLACEMENT_3D('',#24,#125,#126);
#128 = PLANE('',#127);
#129 = FACE_SURFACE('',(#124),#128,.T.);
#130 = POLY_LOOP('',(#17,#18,#26));
#131 = FACE_OUTER_BOUND('',#130,.T.);
#132 = DIRECTION('',(0.000000,0.000000,1.000000));
#133 = DIRECTION('',(1.000000,0.000000,0.000000));
#134 = AXIS2_PLACEMENT_3D('',#17,#132,#133);
#135 = PLANE('',#134);
#136 = FACE_SURFACE('',(#131),#135,.T.);
#137 = POLY_LOOP('',(#27,#28,#18));
#138 = FACE_OUTER_BOUND('',#137,.T.);
#139 = DIRECTION('',(1.000000,0.000000,0.000043));
#140 = DIRECTION('',(0.000000,1.000000,0.000000));
#141 = AXIS2_PLACEMENT_3D('',#27,#139,#140);
#142 = PLANE('',#141);
#143 = FACE_SURFACE('',(#138),#142,.T.);
#144 = POLY_LOOP('',(#29,#18,#30));
#145 = FACE_OUTER_BOUND('',#144,.T.);
#146 = DIRECTION('',(0.000000,1.000000,0.000000));
#147 = DIRECTION('',(1.000000,0.000000,0.000000));
#148 = AXIS2_PLACEMENT_3D('',#29,#146,#147);
#149 = PLANE('',#148);
#150 = FACE_SURFACE('',(#145),#149,.T.);
#151 = POLY_LOOP('',(#18,#19,#17));
#152 = FACE_OUTER_BOUND('',#151,.T.);
#153 = DIRECTION('',(1.000000,0.000000,0.000000));
#154 = DIRECTION('',(0.000000,1.000000,0.000000));
#155 = AXIS2_PLACEMENT_3D('',#18,#153,#154);
#156 = PLANE('',#155);
#157 = FACE_SURFACE('',(#152),#156,.T.);
#158 = POLY_LOOP('',(#31,#32,#33));
#159 = FACE_OUTER_BOUND('',#158,.T.);
#160 = DIRECTION('',(0.247685,0.000000,0.968841));
#161 = DIRECTION('',(1.000000,0.000000,0.000000));
#162 = AXIS2_PLACEMENT_3D('',#31,#160,#161);
#163 = PLANE('',#162);
#164 = FACE_SURFACE('',(#159),#163,.T.);
#165 = POLY_LOOP('',(#34,#35,#17));
#166 = FACE_OUTER_BOUND('',#165,.T.);
#167 = DIRECTION('',(0.999891,0.014790,0.000000));
#168 = DIRECTION('',(0.000000,1.000000,0.000000));
#169 = AXIS2_PLACEMENT_3D('',#34,#167,#168);
#170 = PLANE('',#169);
#171 = FACE_SURFACE('',(#166),#170,.T.);
#172 = POLY_LOOP('',(#19,#36,#18));
#173 = FACE_OUTER_BOUND('',#172,.T.);
#174 = DIRECTION('',(0.000000,0.000000,1.000000));
#175 = DIRECTION('',(1.000000,0.000000,0.000000));
#176 = AXIS2_PLACEMENT_3D('',#19,#174,#175);
#177 = PLANE('',#176);
#178 = FACE_SURFACE('',(#173),#177,.T.);
#179 = POLY_LOOP('',(#37,#19,#31));
#180 = FACE_OUTER_BOUND('',#179,.T.);
#181 = DIRECTION('',(1.000000,0.000000,0.000000));
#182 = DIRECTION('',(0.000000,1.000000,0.000000));
#183 = AXIS2_PLACEMENT_3D('',#37,#181,#182);
#184 = PLANE('',#183);
#185 = FACE_SURFACE('',(#180),#184,.T.);
#186 = POLY_LOOP('',(#38,#39,#34));
#187 = FACE_OUTER_BOUND('',#186,.T.);
#188 = DIRECTION('',(1.000000,0.000000,0.000001));
#189 = DIRECTION('',(0.000000,1.000000,0.000000));
#190 = AXIS2_PLACEMENT_3D('',#38,#188,#189);
#191 = PLANE('',#190);
#192 = FACE_SURFACE('',(#187),#191,.T.);
#193 = POLY_LOOP('',(#37,#18,#19));
#194 = FACE_OUTER_BOUND('',#193,.T.);
#195 = DIRECTION('',(1.000000,0.000000,0.000000));
#196 = DIRECTION('',(0.000000,1.000000,0.000000));
#197 = AXIS2_PLACEMENT_3D('',#37,#195,#196);
#198 = PLANE('',#197);
#199 = FACE_SURFACE('',(#194),#198,.T.);
#200 = POLY_LOOP('',(#18,#19,#36));
#201 = FACE_OUTER_BOUND('',#200,.T.);
#202 = DIRECTION('',(1.000000,0.000000,0.000000));
#203 = DIRECTION('',(0.000000,1.000000,0.000000));
#204 = AXIS2_PLACEMENT_3D('',#18,#202,#203);
#205 = PLANE('',#204);
#206 = FACE_SURFACE('',(#201),#205,.T.);
#207 = POLY_LOOP('',(#40,#41,#42));
#208 = FACE_OUTER_BOUND('',#207,.T.);
#209 = DIRECTION('',(0.000000,0.000000,1.000000));
#210 = DIRECTION('',(1.000000,0.000000,0.000000));
#211 = AXIS2_PLACEMENT_3D('',#40,#209,#210);
#212 = PLANE('',#211);
#213 = FACE_SURFACE('',(#208),#212,.T.);
#214 = POLY_LOOP('',(#43,#44,#36));
#215 = FACE_OUTER_BOUND('',#214,.T.);
#216 = DIRECTION('',(1.000000,0.000000,0.000000));
#217 = DIRECTION('',(0.000000,1.000000,0.000000));
#218 = AXIS2_PLACEMENT_3D('',#43,#216,#217);
#219 = PLANE('',#218);
#220 = FACE_SURFACE('',(#215),#219,.T.);
#221 = POLY_LOOP('',(#19,#37,#18));
#222 = FACE_OUTER_BOUND('',#221,.T.);
#223 = DIRECTION('',(0.247751,0.000000,0.968824));
#224 = DIRECTION('',(1.000000,0.000000,0.000000));
#225 = AXIS2_PLACEMENT_3D('',#19,#223,#224);
#226 = PLANE('',#225);
#227 = FACE_SURFACE('',(#222),#226,.T.);
#228 = POLY_LOOP('',(#37,#18,#19));
#229 = FACE_OUTER_BOUND('',#228,.T.);
#230 = DIRECTION('',(1.000000,0.000000,0.000000));
#231 = DIRECTION('',(0.000000,1.000000,0.000000));
#232 = AXIS2_PLACEMENT_3D('',#37,#230,#231);
#233 = PLANE('',#232);
#234 = FACE_SURFACE('',(#229),#233,.T.);
#235 = POLY_LOOP('',(#42,#45,#46));
#236 = FACE_OUTER_BOUND('',#235,.T.);
#237 = DIRECTION('',(1.000000,0.000000,0.000000));
#238 = DIRECTION('',(0.000000,1.000000,0.000000));
#239 = AXIS2_PLACEMENT_3D('',#42,#237,#238);
#240 = PLANE('',#239);
#241 = FACE_SURFACE('',(#236),#240,.T.);
#242 = POLY_LOOP('',(#36,#18,#26));
#243 = FACE_OUTER_BOUND('',#242,.T.);
#244 = DIRECTION('',(1.000000,0.000000,0.000000));
#245 = DIRECTION('',(0.000000,1.000000,0.000000));
#246 = AXIS2_PLACEMENT_3D('',#36,#244,#245);
#247 = PLANE('',#246);
#248 = FACE_SURFACE('',(#243),#247,.T.);
#249 = POLY_LOOP('',(#18,#26,#29));
#250 = FACE_OUTER_BOUND('',#249,.T.);
#251 = DIRECTION('',(0.000000,1.000000,0.000000));
#252 = DIRECTION('',(1.000000,0.000000,0.000000));
#253 = AXIS2_PLACEMENT_3D('',#18,#251,#252);
#254 = PLANE('',#253);
#255 = FACE_SURFACE('',(#250),#254,.T.);
#256 = POLY_LOOP('',(#19,#47,#48));
#257 = FACE_OUTER_BOUND('',#256,.T.);
#258 = DIRECTION('',(0.000000,0.000000,1.000000));
#259 = DIRECTION('',(1.000000,0.000000,0.000000));
#260 = AXIS2_PLACEMENT_3D('',#19,#258,#259);
#261 = PLANE('',#260);
#262 = FACE_SURFACE('',(#257),#261,.T.);
#263 = POLY_LOOP('',(#18,#49,#50));
#264 = FACE_OUTER_BOUND('',#263,.T.);
#265 = DIRECTION('',(0.000000,1.000000,0.000000));
#266 = DIRECTION('',(1.000000,0.000000,0.000000));
#267 = AXIS2_PLACEMENT_3D('',#18,#265,#266);
#268 = PLANE('',#267);
#269 = FACE_SURFACE('',(#264),#268,.T.);
#270 = POLY_LOOP('',(#30,#51,#18));
#271 = FACE_OUTER_BOUND('',#270,.T.);
#272 = DIRECTION('',(0.061333,0.998117,0.000000));
#273 = DIRECTION('',(1.000000,0.000000,0.000000));
#274 = AXIS2_PLACEMENT_3D('',#30,#272,#273);
#275 = PLANE('',#274);
#276 = FACE_SURFACE('',(#271),#275,.T.);
#277 = POLY_LOOP('',(#51,#30,#30));
#278 = FACE_OUTER_BOUND('',#277,.T.);
#279 = DIRECTION('',(0.058675,0.998277,0.000000));
#280 = DIRECTION('',(1.000000,0.000000,0.000000));
#281 = AXIS2_PLACEMENT_3D('',#51,#279,#280);
#282 = PLANE('',#281);
#283 = FACE_SURFACE('',(#278),#282,.T.);
#284 = POLY_LOOP('',(#48,#52,#18));
#285 = FACE_OUTER_BOUND('',#284,.T.);
#286 = DIRECTION('',(0.000000,1.000000,0.000000));
#287 = DIRECTION('',(1.000000,0.000000,0.000000));
#288 = AXIS2_PLACEMENT_3D('',#48,#286,#287);
#289 = PLANE('',#288);
#290 = FACE_SURFACE('',(#285),#289,.T.);
#291 = POLY_LOOP('',(#50,#18,#53));
#292 = FACE_OUTER_BOUND('',#291,.T.);
#293 = DIRECTION('',(0.000001,1.000000,0.000000));
#294 = DIRECTION('',(1.000000,0.000000,0.000000));
#295 = AXIS2_PLACEMENT_3D('',#50,#293,#294);
#296 = PLANE('',#295);
#297 = FACE_SURFACE('',(#292),#296,.T.);
#298 = POLY_LOOP('',(#18,#53,#54));
#299 = FACE_OUTER_BOUND('',#298,.T.);
#300 = DIRECTION('',(0.000000,0.000000,1.000000));
#301 = DIRECTION('',(1.000000,0.000000,0.000000));
#302 = AXIS2_PLACEMENT_3D('',#18,#300,#301);
#303 = PLANE('',#302);
#304 = FACE_SURFACE('',(#299),#303,.T.);
#305 = POLY_LOOP('',(#30,#55,#56));
#306 = FACE_OUTER_BOUND('',#305,.T.);
#307 = DIRECTION('',(0.000000,0.000000,1.000000));
#308 = DIRECTION('',(1.000000,0.000000,0.000000));
#309 = AXIS2_PLACEMENT_3D('',#30,#307,#308);
#310 = PLANE('',#309);
#311 = FACE_SURFACE('',(#306),#310,.T.);
#312 = POLY_LOOP('',(#18,#57,#25));
#313 = FACE_OUTER_BOUND('',#312,.T.);
#314 = DIRECTION('',(0.000000,0.000000,1.000000));
#315 = DIRECTION('',(1.000000,0.000000,0.000000));
#316 = AXIS2_PLACEMENT_3D('',#18,#314,#315);
#317 = PLANE('',#316);
#318 = FACE_SURFACE('',(#313),#317,.T.);
#319 = POLY_LOOP('',(#30,#50,#18));
#320 = FACE_OUTER_BOUND('',#319,.T.);
#321 = DIRECTION('',(0.000000,0.000000,1.000000));
#322 = DIRECTION('',(1.000000,0.000000,0.000000));
#323 = AXIS2_PLACEMENT_3D('',#30,#321,#322);
#324 = PLANE('',#323);
#325 = FACE_SURFACE('',(#320),#324,.T.);
#326 = POLY_LOOP('',(#29,#18,#26));
#327 = FACE_OUTER_BOUND('',#326,.T.);
#328 = DIRECTION('',(0.703174,0.711017,0.000000));
#329 = DIRECTION('',(1.000000,0.000000,0.000000));
#330 = AXIS2_PLACEMENT_3D('',#29,#328,#329);
#331 = PLANE('',#330);
#332 = FACE_SURFACE('',(#327),#331,.T.);
#333 = POLY_LOOP('',(#27,#28,#18));
#334 = FACE_OUTER_BOUND('',#333,.T.);
#335 = DIRECTION('',(1.000000,0.000000,0.000043));
#336 = DIRECTION('',(0.000000,1.000000,0.000000));
#337 = AXIS2_PLACEMENT_3D('',#27,#335,#336);
#338 = PLANE('',#337);
#339 = FACE_SURFACE('',(#334),#338,.T.);
#340 = POLY_LOOP('',(#29,#18,#26));
#341 = FACE_OUTER_BOUND('',#340,.T.);
#342 = DIRECTION('',(0.000000,1.000000,0.000000));
#343 = DIRECTION('',(1.000000,0.000000,0.000000));
#344 = AXIS2_PLACEMENT_3D('',#29,#342,#343);
#345 = PLANE('',#344);
#346 = FACE_SURFACE('',(#341),#345,.T.);
#347 = POLY_LOOP('',(#18,#19,#36));
#348 = FACE_OUTER_BOUND('',#347,.T.);
#349 = DIRECTION('',(0.000000,1.000000,0.000000));
#350 = DIRECTION('',(1.000000,0.000000,0.000000));
#351 = AXIS2_PLACEMENT_3D('',#18,#349,#350);
#352 = PLANE('',#351);
#353 = FACE_SURFACE('',(#348),#352,.T.);
#354 = POLY_LOOP('',(#58,#59,#38));
#355 = FACE_OUTER_BOUND('',#354,.T.);
#356 = DIRECTION('',(0.000004,0.000004,1.000000));
#357 = DIRECTION('',(1.000000,0.000000,0.000000));
#358 = AXIS2_PLACEMENT_3D('',#58,#356,#357);
#359 = PLANE('',#358);
#360 = FACE_SURFACE('',(#355),#359,.T.);
#361 = POLY_LOOP('',(#60,#61,#37));
#362 = FACE_OUTER_BOUND('',#361,.T.);
#363 = DIRECTION('',(1.000000,0.000000,0.000000));
#364 = DIRECTION('',(0.000000,1.000000,0.000000));
#365 = AXIS2_PLACEMENT_3D('',#60,#363,#364);
#366 = PLANE('',#365);
#367 = FACE_SURFACE('',(#362),#366,.T.);
#368 = POLY_LOOP('',(#19,#62,#24));
#369 = FACE_OUTER_BOUND('',#368,.T.);
#370 = DIRECTION('',(0.000000,0.000000,1.000000));
#371 = DIRECTION('',(1.000000,0.000000,0.000000));
#372 = AXIS2_PLACEMENT_3D('',#19,#370,#371);
#373 = PLANE('',#372);
#374 = FACE_SURFACE('',(#369),#373,.T.);
#375 = POLY_LOOP('',(#63,#24,#40));
#376 = FACE_OUTER_BOUND('',#375,.T.);
#377 = DIRECTION('',(0.000000,0.000000,1.000000));
#378 = DIRECTION('',(1.000000,0.000000,0.000000));
#379 = AXIS2_PLACEMENT_3D('',#63,#377,#378);
#380 = PLANE('',#379);
#381 = FACE_SURFACE('',(#376),#380,.T.);
#382 = POLY_LOOP('',(#64,#65,#43));
#383 = FACE_OUTER_BOUND('',#382,.T.);
#384 = DIRECTION('',(0.000000,0.999984,0.005620));
#385 = DIRECTION('',(1.000000,0.000000,0.000000));
#386 = AXIS2_PLACEMENT_3D('',#64,#384,#385);
#387 = PLANE('',#386);
#388 = FACE_SURFACE('',(#383),#387,.T.);
#389 = POLY_LOOP('',(#62,#19,#19));
#390 = FACE_OUTER_BOUND('',#389,.T.);
#391 = DIRECTION('',(1.000000,0.000000,0.000000));
#392 = DIRECTION('',(0.000000,1.000000,0.000000));
#393 = AXIS2_PLACEMENT_3D('',#62,#391,#392);
#394 = PLANE('',#393);
#395 = FACE_SURFACE('',(#390),#394,.T.);
#396 = POLY_LOOP('',(#24,#23,#66));
#397 = FACE_OUTER_BOUND('',#396,.T.);
#398 = DIRECTION('',(1.000000,0.000000,0.000000));
#399 = DIRECTION('',(0.000000,1.000000,0.000000));
#400 = AXIS2_PLACEMENT_3D('',#24,#398,#399);
#401 = PLANE('',#400);
#402 = FACE_SURFACE('',(#397),#401,.T.);
#403 = POLY_LOOP('',(#67,#68,#69));
#404 = FACE_OUTER_BOUND('',#403,.T.);
#405 = DIRECTION('',(0.000000,0.058675,0.998277));
#406 = DIRECTION('',(1.000000,0.000000,0.000000));
#407 = AXIS2_PLACEMENT_3D('',#67,#405,#406);
#408 = PLANE('',#407);
#409 = FACE_SURFACE('',(#404),#408,.T.);
#410 = POLY_LOOP('',(#22,#23,#66));
#411 = FACE_OUTER_BOUND('',#410,.T.);
#412 = DIRECTION('',(1.000000,0.000000,0.000000));
#413 = DIRECTION('',(0.000000,1.000000,0.000000));
#414 = AXIS2_PLACEMENT_3D('',#22,#412,#413);
#415 = PLANE('',#414);
#416 = FACE_SURFACE('',(#411),#415,.T.);
#417 = POLY_LOOP('',(#70,#63,#24));
#418 = FACE_OUTER_BOUND('',#417,.T.);
#419 = DIRECTION('',(0.003758,0.000000,0.999993));
#420 = DIRECTION('',(1.000000,0.000000,0.000000));
#421 = AXIS2_PLACEMENT_3D('',#70,#419,#420);
#422 = PLANE('',#421);
#423 = FACE_SURFACE('',(#418),#422,.T.);
#424 = POLY_LOOP('',(#24,#24,#67));
#425 = FACE_OUTER_BOUND('',#424,.T.);
#426 = DIRECTION('',(0.000000,0.000000,1.000000));
#427 = DIRECTION('',(1.000000,0.000000,0.000000));
#428 = AXIS2_PLACEMENT_3D('',#24,#426,#427);
#429 = PLANE('',#428);
#430 = FACE_SURFACE('',(#425),#429,.T.);
#431 = POLY_LOOP('',(#71,#72,#22));
#432 = FACE_OUTER_BOUND('',#431,.T.);
#433 = DIRECTION('',(0.000000,0.000000,1.000000));
#434 = DIRECTION('',(1.000000,0.000000,0.000000));
#435 = AXIS2_PLACEMENT_3D('',#71,#433,#434);
#436 = PLANE('',#435);
#437 = FACE_SURFACE('',(#432),#436,.T.);
#438 = POLY_LOOP('',(#18,#24,#70));
#439 = FACE_OUTER_BOUND('',#438,.T.);
#440 = DIRECTION('',(0.000000,0.000000,1.000000));
#441 = DIRECTION('',(1.000000,0.000000,0.000000));
#442 = AXIS2_PLACEMENT_3D('',#18,#440,#441);
#443 = PLANE('',#442);
#444 = FACE_SURFACE('',(#439),#443,.T.);
#445 = POLY_LOOP('',(#24,#25,#18));
#446 = FACE_OUTER_BOUND('',#445,.T.);
#447 = DIRECTION('',(0.000003,0.003820,0.999993));
#448 = DIRECTION('',(1.000000,0.000000,0.000000));
#449 = AXIS2_PLACEMENT_3D('',#24,#447,#448);
#450 = PLANE('',#449);
#451 = FACE_SURFACE('',(#446),#450,.T.);
#452 = POLY_LOOP('',(#55,#56,#71));
#453 = FACE_OUTER_BOUND('',#452,.T.);
#454 = DIRECTION('',(0.000004,1.000000,0.000000));
#455 = DIRECTION('',(1.000000,0.000000,0.000000));
#456 = AXIS2_PLACEMENT_3D('',#55,#454,#455);
#457 = PLANE('',#456);
#458 = FACE_SURFACE('',(#453),#457,.T.);
#459 = POLY_LOOP('',(#57,#25,#18));
#460 = FACE_OUTER_BOUND('',#459,.T.);
#461 = DIRECTION('',(0.000000,0.000000,1.000000));
#462 = DIRECTION('',(1.000000,0.000000,0.000000));
#463 = AXIS2_PLACEMENT_3D('',#57,#461,#462);
#464 = PLANE('',#463);
#465 = FACE_SURFACE('',(#460),#464,.T.);
#466 = POLY_LOOP('',(#54,#18,#53));
#467 = FACE_OUTER_BOUND('',#466,.T.);
#468 = DIRECTION('',(0.000000,0.703174,0.711017));
#469 = DIRECTION('',(1.000000,0.000000,0.000000));
#470 = AXIS2_PLACEMENT_3D('',#54,#468,#469);
#471 = PLANE('',#470);
#472 = FACE_SURFACE('',(#467),#471,.T.);
#473 = POLY_LOOP('',(#18,#53,#20));
#474 = FACE_OUTER_BOUND('',#473,.T.);
#475 = DIRECTION('',(0.000000,0.000000,1.000000));
#476 = DIRECTION('',(1.000000,0.000000,0.000000));
#477 = AXIS2_PLACEMENT_3D('',#18,#475,#476);
#478 = PLANE('',#477);
#479 = FACE_SURFACE('',(#474),#478,.T.);
#480 = POLY_LOOP('',(#73,#18,#74));
#481 = FACE_OUTER_BOUND('',#480,.T.);
#482 = DIRECTION('',(0.999984,0.005620,0.000000));
#483 = DIRECTION('',(0.000000,1.000000,0.000000));
#484 = AXIS2_PLACEMENT_3D('',#73,#482,#483);
#485 = PLANE('',#484);
#486 = FACE_SURFACE('',(#481),#485,.T.);
#487 = POLY_LOOP('',(#18,#24,#70));
#488 = FACE_OUTER_BOUND('',#487,.T.);
#489 = DIRECTION('',(0.000000,0.000000,1.000000));
#490 = DIRECTION('',(1.000000,0.000000,0.000000));
#491 = AXIS2_PLACEMENT_3D('',#18,#489,#490);
#492 = PLANE('',#491);
#493 = FACE_SURFACE('',(#488),#492,.T.);
#494 = POLY_LOOP('',(#18,#29,#30));
#495 = FACE_OUTER_BOUND('',#494,.T.);
#496 = DIRECTION('',(0.000000,0.000015,1.000000));
#497 = DIRECTION('',(1.000000,0.000000,0.000000));
#498 = AXIS2_PLACEMENT_3D('',#18,#496,#497);
#499 = PLANE('',#498);
#500 = FACE_SURFACE('',(#495),#499,.T.);
#501 = POLY_LOOP('',(#47,#48,#52));
#502 = FACE_OUTER_BOUND('',#501,.T.);
#503 = DIRECTION('',(1.000000,0.000000,0.000000));
#504 = DIRECTION('',(0.000000,1.000000,0.000000));
#505 = AXIS2_PLACEMENT_3D('',#47,#503,#504);
#506 = PLANE('',#505);
#507 = FACE_SURFACE('',(#502),#506,.T.);
#508 = POLY_LOOP('',(#75,#29,#30));
#509 = FACE_OUTER_BOUND('',#508,.T.);
#510 = DIRECTION('',(0.000000,0.000000,1.000000));
#511 = DIRECTION('',(1.000000,0.000000,0.000000));
#512 = AXIS2_PLACEMENT_3D('',#75,#510,#511);
#513 = PLANE('',#512);
#514 = FACE_SURFACE('',(#509),#513,.T.);
#515 = POLY_LOOP('',(#63,#24,#19));
#516 = FACE_OUTER_BOUND('',#515,.T.);
#517 = DIRECTION('',(0.000000,0.000000,1.000000));
#518 = DIRECTION('',(1.000000,0.000000,0.000000));
#519 = AXIS2_PLACEMENT_3D('',#63,#517,#518);
#520 = PLANE('',#519);
#521 = FACE_SURFACE('',(#516),#520,.T.);
#522 = POLY_LOOP('',(#18,#55,#56));
#523 = FACE_OUTER_BOUND('',#522,.T.);
#524 = DIRECTION('',(1.000000,0.000000,0.000000));
#525 = DIRECTION('',(0.000000,1.000000,0.000000));
#526 = AXIS2_PLACEMENT_3D('',#18,#524,#525);
#527 = PLANE('',#526);
#528 = FACE_SURFACE('',(#523),#527,.T.);
#529 = POLY_LOOP('',(#18,#57,#25));
#530 = FACE_OUTER_BOUND('',#529,.T.);
#531 = DIRECTION('',(0.000000,0.000000,1.000000));
#532 = DIRECTION('',(1.000000,0.000000,0.000000));
#533 = AXIS2_PLACEMENT_3D('',#18,#531,#532);
#534 = PLANE('',#533);
#535 = FACE_SURFACE('',(#530),#534,.T.);
#536 = POLY_LOOP('',(#18,#17,#18));
#537 = FACE_OUTER_BOUND('',#536,.T.);
#538 = DIRECTION('',(0.000000,0.000000,1.000000));
#539 = DIRECTION('',(1.000000,0.000000,0.000000));
#540 = AXIS2_PLACEMENT_3D('',#18,#538,#539);
#541 = PLANE('',#540);
#542 = FACE_SURFACE('',(#537),#541,.T.);
#543 = POLY_LOOP('',(#18,#18,#76));
#544 = FACE_OUTER_BOUND('',#543,.T.);
#545 = DIRECTION('',(0.000000,0.000000,1.000000));
#546 = DIRECTION('',(1.000000,0.000000,0.000000));
#547 = AXIS2_PLACEMENT_3D('',#18,#545,#546);
#548 = PLANE('',#547);
#549 = FACE_SURFACE('',(#544),#548,.T.);
#550 = POLY_LOOP('',(#77,#18,#57));
#551 = FACE_OUTER_BOUND('',#550,.T.);
#552 = DIRECTION('',(0.253545,0.967323,0.000000));
#553 = DIRECTION('',(1.000000,0.000000,0.000000));
#554 = AXIS2_PLACEMENT_3D('',#77,#552,#553);
#555 = PLANE('',#554);
#556 = FACE_SURFACE('',(#551),#555,.T.);
#557 = POLY_LOOP('',(#18,#18,#17));
#558 = FACE_OUTER_BOUND('',#557,.T.);
#559 = DIRECTION('',(0.000000,1.000000,0.000000));
#560 = DIRECTION('',(1.000000,0.000000,0.000000));
#561 = AXIS2_PLACEMENT_3D('',#18,#559,#560);
#562 = PLANE('',#561);
#563 = FACE_SURFACE('',(#558),#562,.T.);
#564 = POLY_LOOP('',(#25,#24,#18));
#565 = FACE_OUTER_BOUND('',#564,.T.);
#566 = DIRECTION('',(0.000000,0.000000,1.000000));
#567 = DIRECTION('',(1.000000,0.000000,0.000000));
#568 = AXIS2_PLACEMENT_3D('',#25,#566,#567);
#569 = PLANE('',#568);
#570 = FACE_SURFACE('',(#565),#569,.T.);
#571 = POLY_LOOP('',(#27,#28,#18));
#572 = FACE_OUTER_BOUND('',#571,.T.);
#573 = DIRECTION('',(1.000000,0.000000,0.000043));
#574 = DIRECTION('',(0.000000,1.000000,0.000000));
#575 = AXIS2_PLACEMENT_3D('',#27,#573,#574);
#576 = PLANE('',#575);
#577 = FACE_SURFACE('',(#572),#576,.T.);
#578 = POLY_LOOP('',(#29,#30,#18));
#579 = FACE_OUTER_BOUND('',#578,.T.);
#580 = DIRECTION('',(0.000000,1.000000,0.000000));
#581 = DIRECTION('',(1.000000,0.000000,0.000000));
#582 = AXIS2_PLACEMENT_3D('',#29,#580,#581);
#583 = PLANE('',#582);
#584 = FACE_SURFACE('',(#579),#583,.T.);
#585 = POLY_LOOP('',(#24,#19,#62));
#586 = FACE_OUTER_BOUND('',#585,.T.);
#587 = DIRECTION('',(1.000000,0.000000,0.000000));
#588 = DIRECTION('',(0.000000,1.000000,0.000000));
#589 = AXIS2_PLACEMENT_3D('',#24,#587,#588);
#590 = PLANE('',#589);
#591 = FACE_SURFACE('',(#586),#590,.T.);
#592 = POLY_LOOP('',(#58,#59,#38));
#593 = FACE_OUTER_BOUND('',#592,.T.);
#594 = DIRECTION('',(0.000004,0.000004,1.000000));
#595 = DIRECTION('',(1.000000,0.000000,0.000000));
#596 = AXIS2_PLACEMENT_3D('',#58,#594,#595);
#597 = PLANE('',#596);
#598 = FACE_SURFACE('',(#593),#597,.T.);
#599 = POLY_LOOP('',(#43,#44,#36));
#600 = FACE_OUTER_BOUND('',#599,.T.);
#601 = DIRECTION('',(1.000000,0.000000,0.000000));
#602 = DIRECTION('',(0.000000,1.000000,0.000000));
#603 = AXIS2_PLACEMENT_3D('',#43,#601,#602);
#604 = PLANE('',#603);
#605 = FACE_SURFACE('',(#600),#604,.T.);
#606 = POLY_LOOP('',(#19,#36,#18));
#607 = FACE_OUTER_BOUND('',#606,.T.);
#608 = DIRECTION('',(0.000000,0.000000,1.000000));
#609 = DIRECTION('',(1.000000,0.000000,0.000000));
#610 = AXIS2_PLACEMENT_3D('',#19,#608,#609);
#611 = PLANE('',#610);
#612 = FACE_SURFACE('',(#607),#611,.T.);
#613 = POLY_LOOP('',(#18,#18,#78));
#614 = FACE_OUTER_BOUND('',#613,.T.);
#615 = DIRECTION('',(0.000000,0.000000,1.000000));
#616 = DIRECTION('',(1.000000,0.000000,0.000000));
#617 = AXIS2_PLACEMENT_3D('',#18,#615,#616);
#618 = PLANE('',#617);
#619 = FACE_SURFACE('',(#614),#618,.T.);
#620 = POLY_LOOP('',(#52,#18,#79));
#621 = FACE_OUTER_BOUND('',#620,.T.);
#622 = DIRECTION('',(0.000000,1.000000,0.000000));
#623 = DIRECTION('',(1.000000,0.000000,0.000000));
#624 = AXIS2_PLACEMENT_3D('',#52,#622,#623);
#625 = PLANE('',#624);
#626 = FACE_SURFACE('',(#621),#625,.T.);
#627 = POLY_LOOP('',(#18,#18,#37));
#628 = FACE_OUTER_BOUND('',#627,.T.);
#629 = DIRECTION('',(0.000000,1.000000,0.000000));
#630 = DIRECTION('',(1.000000,0.000000,0.000000));
#631 = AXIS2_PLACEMENT_3D('',#18,#629,#630);
#632 = PLANE('',#631);
#633 = FACE_SURFACE('',(#628),#632,.T.);
#634 = POLY_LOOP('',(#23,#66,#24));
#635 = FACE_OUTER_BOUND('',#634,.T.);
#636 = DIRECTION('',(0.000004,0.000004,1.000000));
#637 = DIRECTION('',(1.000000,0.000000,0.000000));
#638 = AXIS2_PLACEMENT_3D('',#23,#636,#637);
#639 = PLANE('',#638);
#640 = FACE_SURFACE('',(#635),#639,.T.);
#641 = POLY_LOOP('',(#80,#64,#65));
#642 = FACE_OUTER_BOUND('',#641,.T.);
#643 = DIRECTION('',(0.000000,0.000000,1.000000));
#644 = DIRECTION('',(1.000000,0.000000,0.000000));
#645 = AXIS2_PLACEMENT_3D('',#80,#643,#644);
#646 = PLANE('',#645);
#647 = FACE_SURFACE('',(#642),#646,.T.);
#648 = POLY_LOOP('',(#23,#66,#24));
#649 = FACE_OUTER_BOUND('',#648,.T.);
#650 = DIRECTION('',(0.000000,1.000000,0.000010));
#651 = DIRECTION('',(1.000000,0.000000,0.000000));
#652 = AXIS2_PLACEMENT_3D('',#23,#650,#651);
#653 = PLANE('',#652);
#654 = FACE_SURFACE('',(#649),#653,.T.);
#655 = POLY_LOOP('',(#18,#18,#51));
#656 = FACE_OUTER_BOUND('',#655,.T.);
#657 = DIRECTION('',(0.000000,0.000000,1.000000));
#658 = DIRECTION('',(1.000000,0.000000,0.000000));
#659 = AXIS2_PLACEMENT_3D('',#18,#657,#658);
#660 = PLANE('',#659);
#661 = FACE_SURFACE('',(#656),#660,.T.);
#662 = POLY_LOOP('',(#81,#80,#64));
#663 = FACE_OUTER_BOUND('',#662,.T.);
#664 = DIRECTION('',(0.000000,0.000000,1.000000));
#665 = DIRECTION('',(1.000000,0.000000,0.000000));
#666 = AXIS2_PLACEMENT_3D('',#81,#664,#665);
#667 = PLANE('',#666);
#668 = FACE_SURFACE('',(#663),#667,.T.);
#669 = POLY_LOOP('',(#82,#83,#62));
#670 = FACE_OUTER_BOUND('',#669,.T.);
#671 = DIRECTION('',(1.000000,0.000000,0.000000));
#672 = DIRECTION('',(0.000000,1.000000,0.000000));
#673 = AXIS2_PLACEMENT_3D('',#82,#671,#672);
#674 = PLANE('',#673);
#675 = FACE_SURFACE('',(#670),#674,.T.);
#676 = POLY_LOOP('',(#50,#18,#30));
#677 = FACE_OUTER_BOUND('',#676,.T.);
#678 = DIRECTION('',(0.000000,0.000000,1.000000));
#679 = DIRECTION('',(1.000000,0.000000,0.000000));
#680 = AXIS2_PLACEMENT_3D('',#50,#678,#679);
#681 = PLANE('',#680);
#682 = FACE_SURFACE('',(#677),#681,.T.);
#683 = POLY_LOOP('',(#18,#58,#59));
#684 = FACE_OUTER_BOUND('',#683,.T.);
#685 = DIRECTION('',(0.000000,1.000000,0.000000));
#686 = DIRECTION('',(1.000000,0.000000,0.000000));
#687 = AXIS2_PLACEMENT_3D('',#18,#685,#686);
#688 = PLANE('',#687);
#689 = FACE_SURFACE('',(#684),#688,.T.);
#690 = POLY_LOOP('',(#84,#43,#44));
#691 = FACE_OUTER_BOUND('',#690,.T.);
#692 = DIRECTION('',(0.000000,1.000000,0.000000));
#693 = DIRECTION('',(1.000000,0.000000,0.000000));
#694 = AXIS2_PLACEMENT_3D('',#84,#692,#693);
#695 = PLANE('',#694);
#696 = FACE_SURFACE('',(#691),#695,.T.);
#697 = POLY_LOOP('',(#24,#19,#62));
#698 = FACE_OUTER_BOUND('',#697,.T.);
#699 = DIRECTION('',(1.000000,0.000000,0.000000));
#700 = DIRECTION('',(0.000000,1.000000,0.000000));
#701 = AXIS2_PLACEMENT_3D('',#24,#699,#700);
#702 = PLANE('',#701);
#703 = FACE_SURFACE('',(#698),#702,.T.);
#704 = POLY_LOOP('',(#50,#18,#30));
#705 = FACE_OUTER_BOUND('',#704,.T.);
#706 = DIRECTION('',(0.000000,0.000000,1.000000));
#707 = DIRECTION('',(1.000000,0.000000,0.000000));
#708 = AXIS2_PLACEMENT_3D('',#50,#706,#707);
#709 = PLANE('',#708);
#710 = FACE_SURFACE('',(#705),#709,.T.);
#711 = POLY_LOOP('',(#85,#86,#18));
#712 = FACE_OUTER_BOUND('',#711,.T.);
#713 = DIRECTION('',(0.000001,1.000000,0.000000));
#714 = DIRECTION('',(1.000000,0.000000,0.000000));
#715 = AXIS2_PLACEMENT_3D('',#85,#713,#714);
#716 = PLANE('',#715);
#717 = FACE_SURFACE('',(#712),#716,.T.);
#718 = POLY_LOOP('',(#87,#18,#30));
#719 = FACE_OUTER_BOUND('',#718,.T.);
#720 = DIRECTION('',(1.000000,0.000010,0.000000));
#721 = DIRECTION('',(0.000000,1.000000,0.000000));
#722 = AXIS2_PLACEMENT_3D('',#87,#720,#721);
#723 = PLANE('',#722);
#724 = FACE_SURFACE('',(#719),#723,.T.);
#725 = POLY_LOOP('',(#18,#23,#66));
#726 = FACE_OUTER_BOUND('',#725,.T.);
#727 = DIRECTION('',(0.000000,1.000000,0.000000));
#728 = DIRECTION('',(1.000000,0.000000,0.000000));
#729 = AXIS2_PLACEMENT_3D('',#18,#727,#728);
#730 = PLANE('',#729);
#731 = FACE_SURFACE('',(#726),#730,.T.);
#732 = POLY_LOOP('',(#20,#21,#88));
#733 = FACE_OUTER_BOUND('',#732,.T.);
#734 = DIRECTION('',(0.000000,0.703174,0.711017));
#735 = DIRECTION('',(1.000000,0.000000,0.000000));
#736 = AXIS2_PLACEMENT_3D('',#20,#734,#735);
#737 = PLANE('',#736);
#738 = FACE_SURFACE('',(#733),#737,.T.);
#739 = POLY_LOOP('',(#57,#25,#18));
#740 = FACE_OUTER_BOUND('',#739,.T.);
#741 = DIRECTION('',(0.000000,0.000000,1.000000));
#742 = DIRECTION('',(1.000000,0.000000,0.000000));
#743 = AXIS2_PLACEMENT_3D('',#57,#741,#742);
#744 = PLANE('',#743);
#745 = FACE_SURFACE('',(#740),#744,.T.);
#746 = POLY_LOOP('',(#37,#19,#19));
#747 = FACE_OUTER_BOUND('',#746,.T.);
#748 = DIRECTION('',(0.000000,0.000000,1.000000));
#749 = DIRECTION('',(1.000000,0.000000,0.000000));
#750 = AXIS2_PLACEMENT_3D('',#37,#748,#749);
#751 = PLANE('',#750);
#752 = FACE_SURFACE('',(#747),#751,.T.);
#753 = POLY_LOOP('',(#18,#76,#89));
#754 = FACE_OUTER_BOUND('',#753,.T.);
#755 = DIRECTION('',(1.000000,0.000000,0.000000));
#756 = DIRECTION('',(0.000000,1.000000,0.000000));
#757 = AXIS2_PLACEMENT_3D('',#18,#755,#756);
#758 = PLANE('',#757);
#759 = FACE_SURFACE('',(#754),#758,.T.);
#760 = POLY_LOOP('',(#18,#90,#54));
#761 = FACE_OUTER_BOUND('',#760,.T.);
#762 = DIRECTION('',(0.000000,1.000000,0.000000));
#763 = DIRECTION('',(1.000000,0.000000,0.000000));
#764 = AXIS2_PLACEMENT_3D('',#18,#762,#763);
#765 = PLANE('',#764);
#766 = FACE_SURFACE('',(#761),#765,.T.);
#767 = POLY_LOOP('',(#18,#36,#19));
#768 = FACE_OUTER_BOUND('',#767,.T.);
#769 = DIRECTION('',(0.000000,0.000000,1.000000));
#770 = DIRECTION('',(1.000000,0.000000,0.000000));
#771 = AXIS2_PLACEMENT_3D('',#18,#769,#770);
#772 = PLANE('',#771);
#773 = FACE_SURFACE('',(#768),#772,.T.);
#774 = POLY_LOOP('',(#18,#91,#32));
#775 = FACE_OUTER_BOUND('',#774,.T.);
#776 = DIRECTION('',(0.000000,0.000000,1.000000));
#777 = DIRECTION('',(1.000000,0.000000,0.000000));
#778 = AXIS2_PLACEMENT_3D('',#18,#776,#777);
#779 = PLANE('',#778);
#780 = FACE_SURFACE('',(#775),#779,.T.);
#781 = POLY_LOOP('',(#39,#46,#75));
#782 = FACE_OUTER_BOUND('',#781,.T.);
#783 = DIRECTION('',(1.000000,0.000000,0.000000));
#784 = DIRECTION('',(0.000000,1.000000,0.000000));
#785 = AXIS2_PLACEMENT_3D('',#39,#783,#784);
#786 = PLANE('',#785);
#787 = FACE_SURFACE('',(#782),#786,.T.);
#788 = POLY_LOOP('',(#19,#54,#24));
#789 = FACE_OUTER_BOUND('',#788,.T.);
#790 = DIRECTION('',(0.000000,1.000000,0.000000));
#791 = DIRECTION('',(1.000000,0.000000,0.000000));
#792 = AXIS2_PLACEMENT_3D('',#19,#790,#791);
#793 = PLANE('',#792);
#794 = FACE_SURFACE('',(#789),#793,.T.);
#795 = POLY_LOOP('',(#36,#18,#67));
#796 = FACE_OUTER_BOUND('',#795,.T.);
#797 = DIRECTION('',(0.000000,0.000000,1.000000));
#798 = DIRECTION('',(1.000000,0.000000,0.000000));
#799 = AXIS2_PLACEMENT_3D('',#36,#797,#798);
#800 = PLANE('',#799);
#801 = FACE_SURFACE('',(#796),#800,.T.);
#802 = POLY_LOOP('',(#71,#72,#22));
#803 = FACE_OUTER_BOUND('',#802,.T.);
#804 = DIRECTION('',(0.000000,0.000000,1.000000));
#805 = DIRECTION('',(1.000000,0.000000,0.000000));
#806 = AXIS2_PLACEMENT_3D('',#71,#804,#805);
#807 = PLANE('',#806);
#808 = FACE_SURFACE('',(#803),#807,.T.);
#809 = POLY_LOOP('',(#18,#18,#51));
#810 = FACE_OUTER_BOUND('',#809,.T.);
#811 = DIRECTION('',(0.000000,0.000000,1.000000));
#812 = DIRECTION('',(1.000000,0.000000,0.000000));
#813 = AXIS2_PLACEMENT_3D('',#18,#811,#812);
#814 = PLANE('',#813);
#815 = FACE_SURFACE('',(#810),#814,.T.);
#816 = POLY_LOOP('',(#19,#17,#18));
#817 = FACE_OUTER_BOUND('',#816,.T.);
#818 = DIRECTION('',(0.000000,0.000000,1.000000));
#819 = DIRECTION('',(1.000000,0.000000,0.000000));
#820 = AXIS2_PLACEMENT_3D('',#19,#818,#819);
#821 = PLANE('',#820);
#822 = FACE_SURFACE('',(#817),#821,.T.);
#823 = POLY_LOOP('',(#92,#27,#28));
#824 = FACE_OUTER_BOUND('',#823,.T.);
#825 = DIRECTION('',(1.000000,0.000000,0.000000));
#826 = DIRECTION('',(0.000000,1.000000,0.000000));
#827 = AXIS2_PLACEMENT_3D('',#92,#825,#826);
#828 = PLANE('',#827);
#829 = FACE_SURFACE('',(#824),#828,.T.);
#830 = POLY_LOOP('',(#93,#51,#30));
#831 = FACE_OUTER_BOUND('',#830,.T.);
#832 = DIRECTION('',(0.000000,0.000000,1.000000));
#833 = DIRECTION('',(1.000000,0.000000,0.000000));
#834 = AXIS2_PLACEMENT_3D('',#93,#832,#833);
#835 = PLANE('',#834);
#836 = FACE_SURFACE('',(#831),#835,.T.);
#837 = POLY_LOOP('',(#17,#18,#23));
#838 = FACE_OUTER_BOUND('',#837,.T.);
#839 = DIRECTION('',(1.000000,0.000000,0.000000));
#840 = DIRECTION('',(0.000000,1.000000,0.000000));
#841 = AXIS2_PLACEMENT_3D('',#17,#839,#840);
#842 = PLANE('',#841);
#843 = FACE_SURFACE('',(#838),#842,.T.);
#844 = POLY_LOOP('',(#18,#94,#95));
#845 = FACE_OUTER_BOUND('',#844,.T.);
#846 = DIRECTION('',(0.000000,0.061333,0.998117));
#847 = DIRECTION('',(1.000000,0.000000,0.000000));
#848 = AXIS2_PLACEMENT_3D('',#18,#846,#847);
#849 = PLANE('',#848);
#850 = FACE_SURFACE('',(#845),#849,.T.);
#851 = POLY_LOOP('',(#18,#49,#50));
#852 = FACE_OUTER_BOUND('',#851,.T.);
#853 = DIRECTION('',(0.997879,0.065098,0.000000));
#854 = DIRECTION('',(0.000000,1.000000,0.000000));
#855 = AXIS2_PLACEMENT_3D('',#18,#853,#854);
#856 = PLANE('',#855);
#857 = FACE_SURFACE('',(#852),#856,.T.);
#858 = POLY_LOOP('',(#70,#63,#24));
#859 = FACE_OUTER_BOUND('',#858,.T.);
#860 = DIRECTION('',(0.000000,0.000000,1.000000));
#861 = DIRECTION('',(1.000000,0.000000,0.000000));
#862 = AXIS2_PLACEMENT_3D('',#70,#860,#861);
#863 = PLANE('',#862);
#864 = FACE_SURFACE('',(#859),#863,.T.);
#865 = POLY_LOOP('',(#18,#30,#55));
#866 = FACE_OUTER_BOUND('',#865,.T.);
#867 = DIRECTION('',(0.000000,0.000000,1.000000));
#868 = DIRECTION('',(1.000000,0.000000,0.000000));
#869 = AXIS2_PLACEMENT_3D('',#18,#867,#868);
#870 = PLANE('',#869);
#871 = FACE_SURFACE('',(#866),#870,.T.);
#872 = POLY_LOOP('',(#86,#18,#90));
#873 = FACE_OUTER_BOUND('',#872,.T.);
#874 = DIRECTION('',(1.000000,0.000000,0.000000));
#875 = DIRECTION('',(0.000000,1.000000,0.000000));
#876 = AXIS2_PLACEMENT_3D('',#86,#874,#875);
#877 = PLANE('',#876);
#878 = FACE_SURFACE('',(#873),#877,.T.);
#879 = POLY_LOOP('',(#18,#30,#50));
#880 = FACE_OUTER_BOUND('',#879,.T.);
#881 = DIRECTION('',(0.000000,0.000000,1.000000));
#882 = DIRECTION('',(1.000000,0.000000,0.000000));
#883 = AXIS2_PLACEMENT_3D('',#18,#881,#882);
#884 = PLANE('',#883);
#885 = FACE_SURFACE('',(#880),#884,.T.);
#886 = POLY_LOOP('',(#70,#63,#18));
#887 = FACE_OUTER_BOUND('',#886,.T.);
#888 = DIRECTION('',(0.000000,0.000000,1.000000));
#889 = DIRECTION('',(1.000000,0.000000,0.000000));
#890 = AXIS2_PLACEMENT_3D('',#70,#888,#889);
#891 = PLANE('',#890);
#892 = FACE_SURFACE('',(#887),#891,.T.);
#893 = POLY_LOOP('',(#48,#52,#18));
#894 = FACE_OUTER_BOUND('',#893,.T.);
#895 = DIRECTION('',(0.000000,1.000000,0.000000));
#896 = DIRECTION('',(1.000000,0.000000,0.000000));
#897 = AXIS2_PLACEMENT_3D('',#48,#895,#896);
#898 = PLANE('',#897);
#899 = FACE_SURFACE('',(#894),#898,.T.);
#900 = POLY_LOOP('',(#51,#18,#30));
#901 = FACE_OUTER_BOUND('',#900,.T.);
#902 = DIRECTION('',(0.999867,0.016302,0.000000));
#903 = DIRECTION('',(0.000000,1.000000,0.000000));
#904 = AXIS2_PLACEMENT_3D('',#51,#902,#903);
#905 = PLANE('',#904);
#906 = FACE_SURFACE('',(#901),#905,.T.);
#907 = POLY_LOOP('',(#18,#30,#51));
#908 = FACE_OUTER_BOUND('',#907,.T.);
#909 = DIRECTION('',(0.000000,1.000000,0.000000));
#910 = DIRECTION('',(1.000000,0.000000,0.000000));
#911 = AXIS2_PLACEMENT_3D('',#18,#909,#910);
#912 = PLANE('',#911);
#913 = FACE_SURFACE('',(#908),#912,.T.);
#914 = POLY_LOOP('',(#26,#94,#95));
#915 = FACE_OUTER_BOUND('',#914,.T.);
#916 = DIRECTION('',(0.000000,0.000000,1.000000));
#917 = DIRECTION('',(1.000000,0.000000,0.000000));
#918 = AXIS2_PLACEMENT_3D('',#26,#916,#917);
#919 = PLANE('',#918);
#920 = FACE_SURFACE('',(#915),#919,.T.);
#921 = POLY_LOOP('',(#18,#79,#87));
#922 = FACE_OUTER_BOUND('',#921,.T.);
#923 = DIRECTION('',(0.997879,0.065098,0.000000));
#924 = DIRECTION('',(0.000000,1.000000,0.000000));
#925 = AXIS2_PLACEMENT_3D('',#18,#923,#924);
#926 = PLANE('',#925);
#927 = FACE_SURFACE('',(#922),#926,.T.);
#928 = POLY_LOOP('',(#30,#51,#18));
#929 = FACE_OUTER_BOUND('',#928,.T.);
#930 = DIRECTION('',(0.000000,0.000000,1.000000));
#931 = DIRECTION('',(1.000000,0.000000,0.000000));
#932 = AXIS2_PLACEMENT_3D('',#30,#930,#931);
#933 = PLANE('',#932);
#934 = FACE_SURFACE('',(#929),#933,.T.);
#935 = POLY_LOOP('',(#51,#18,#30));
#936 = FACE_OUTER_BOUND('',#935,.T.);
#937 = DIRECTION('',(0.058675,0.998277,0.000000));
#938 = DIRECTION('',(1.000000,0.000000,0.000000));
#939 = AXIS2_PLACEMENT_3D('',#51,#937,#938);
#940 = PLANE('',#939);
#941 = FACE_SURFACE('',(#936),#940,.T.);
#942 = POLY_LOOP('',(#95,#77,#18));
#943 = FACE_OUTER_BOUND('',#942,.T.);
#944 = DIRECTION('',(0.232681,0.972553,0.000000));
#945 = DIRECTION('',(1.000000,0.000000,0.000000));
#946 = AXIS2_PLACEMENT_3D('',#95,#944,#945);
#947 = PLANE('',#946);
#948 = FACE_SURFACE('',(#943),#947,.T.);
#949 = POLY_LOOP('',(#50,#18,#30));
#950 = FACE_OUTER_BOUND('',#949,.T.);
#951 = DIRECTION('',(0.000001,1.000000,0.000000));
#952 = DIRECTION('',(1.000000,0.000000,0.000000));
#953 = AXIS2_PLACEMENT_3D('',#50,#951,#952);
#954 = PLANE('',#953);
#955 = FACE_SURFACE('',(#950),#954,.T.);
#956 = POLY_LOOP('',(#18,#19,#17));
#957 = FACE_OUTER_BOUND('',#956,.T.);
#958 = DIRECTION('',(0.000000,1.000000,0.000000));
#959 = DIRECTION('',(1.000000,0.000000,0.000000));
#960 = AXIS2_PLACEMENT_3D('',#18,#958,#959);
#961 = PLANE('',#960);
#962 = FACE_SURFACE('',(#957),#961,.T.);
#963 = POLY_LOOP('',(#40,#41,#42));
#964 = FACE_OUTER_BOUND('',#963,.T.);
#965 = DIRECTION('',(0.015192,0.000000,0.999885));
#966 = DIRECTION('',(1.000000,0.000000,0.000000));
#967 = AXIS2_PLACEMENT_3D('',#40,#965,#966);
#968 = PLANE('',#967);
#969 = FACE_SURFACE('',(#964),#968,.T.);
#970 = POLY_LOOP('',(#60,#61,#37));
#971 = FACE_OUTER_BOUND('',#970,.T.);
#972 = DIRECTION('',(1.000000,0.000000,0.000000));
#973 = DIRECTION('',(0.000000,1.000000,0.000000));
#974 = AXIS2_PLACEMENT_3D('',#60,#972,#973);
#975 = PLANE('',#974);
#976 = FACE_SURFACE('',(#971),#975,.T.);
#977 = POLY_LOOP('',(#50,#18,#30));
#978 = FACE_OUTER_BOUND('',#977,.T.);
#979 = DIRECTION('',(0.000000,1.000000,0.000000));
#980 = DIRECTION('',(1.000000,0.000000,0.000000));
#981 = AXIS2_PLACEMENT_3D('',#50,#979,#980);
#982 = PLANE('',#981);
#983 = FACE_SURFACE('',(#978),#982,.T.);
#984 = POLY_LOOP('',(#24,#58,#59));
#985 = FACE_OUTER_BOUND('',#984,.T.);
#986 = DIRECTION('',(0.000000,1.000000,0.000000));
#987 = DIRECTION('',(1.000000,0.000000,0.000000));
#988 = AXIS2_PLACEMENT_3D('',#24,#986,#987);
#989 = PLANE('',#988);
#990 = FACE_SURFACE('',(#985),#989,.T.);
#991 = POLY_LOOP('',(#84,#82,#83));
#992 = FACE_OUTER_BOUND('',#991,.T.);
#993 = DIRECTION('',(0.000000,1.000000,0.000000));
#994 = DIRECTION('',(1.000000,0.000000,0.000000));
#995 = AXIS2_PLACEMENT_3D('',#84,#993,#994);
#996 = PLANE('',#995);
#997 = FACE_SURFACE('',(#992),#996,.T.);
#998 = POLY_LOOP('',(#24,#25,#18));
#999 = FACE_OUTER_BOUND('',#998,.T.);
#1000 = DIRECTION('',(1.000000,0.000000,0.000000));
#1001 = DIRECTION('',(0.000000,1.000000,0.000000));
#1002 = AXIS2_PLACEMENT_3D('',#24,#1000,#1001);
#1003 = PLANE('',#1002);
#1004 = FACE_SURFACE('',(#999),#1003,.T.);
#1005 = POLY_LOOP('',(#87,#19,#19));
#1006 = FACE_OUTER_BOUND('',#1005,.T.);
#1007 = DIRECTION('',(0.000003,1.000000,0.000000));
#1008 = DIRECTION('',(1.000000,0.000000,0.000000));
#1009 = AXIS2_PLACEMENT_3D('',#87,#1007,#1008);
#1010 = PLANE('',#1009);
#1011 = FACE_SURFACE('',(#1006),#1010,.T.);
#1012 = POLY_LOOP('',(#42,#45,#34));
#1013 = FACE_OUTER_BOUND('',#1012,.T.);
#1014 = DIRECTION('',(1.000000,0.000000,0.000000));
#1015 = DIRECTION('',(0.000000,1.000000,0.000000));
#1016 = AXIS2_PLACEMENT_3D('',#42,#1014,#1015);
#1017 = PLANE('',#1016);
#1018 = FACE_SURFACE('',(#1013),#1017,.T.);
#1019 = POLY_LOOP('',(#37,#30,#87));
#1020 = FACE_OUTER_BOUND('',#1019,.T.);
#1021 = DIRECTION('',(1.000000,0.000000,0.000000));
#1022 = DIRECTION('',(0.000000,1.000000,0.000000));
#1023 = AXIS2_PLACEMENT_3D('',#37,#1021,#1022);
#1024 = PLANE('',#1023);
#1025 = FACE_SURFACE('',(#1020),#1024,.T.);
#1026 = POLY_LOOP('',(#26,#96,#24));
#1027 = FACE_OUTER_BOUND('',#1026,.T.);
#1028 = DIRECTION('',(0.003820,0.999993,0.000000));
#1029 = DIRECTION('',(1.000000,0.000000,0.000000));
#1030 = AXIS2_PLACEMENT_3D('',#26,#1028,#1029);
#1031 = PLANE('',#1030);
#1032 = FACE_SURFACE('',(#1027),#1031,.T.);
#1033 = POLY_LOOP('',(#21,#88,#97));
#1034 = FACE_OUTER_BOUND('',#1033,.T.);
#1035 = DIRECTION('',(0.000000,0.232681,0.972553));
#1036 = DIRECTION('',(1.000000,0.000000,0.000000));
#1037 = AXIS2_PLACEMENT_3D('',#21,#1035,#1036);
#1038 = PLANE('',#1037);
#1039 = FACE_SURFACE('',(#1034),#1038,.T.);
#1040 = POLY_LOOP('',(#25,#18,#30));
#1041 = FACE_OUTER_BOUND('',#1040,.T.);
#1042 = DIRECTION('',(0.010902,0.999808,0.016301));
#1043 = DIRECTION('',(1.000000,0.000000,0.000000));
#1044 = AXIS2_PLACEMENT_3D('',#25,#1042,#1043);
#1045 = PLANE('',#1044);
#1046 = FACE_SURFACE('',(#1041),#1045,.T.);
#1047 = POLY_LOOP('',(#18,#26,#29));
#1048 = FACE_OUTER_BOUND('',#1047,.T.);
#1049 = DIRECTION('',(0.000000,1.000000,0.000000));
#1050 = DIRECTION('',(1.000000,0.000000,0.000000));
#1051 = AXIS2_PLACEMENT_3D('',#18,#1049,#1050);
#1052 = PLANE('',#1051);
#1053 = FACE_SURFACE('',(#1048),#1052,.T.);
#1054 = POLY_LOOP('',(#40,#41,#42));
#1055 = FACE_OUTER_BOUND('',#1054,.T.);
#1056 = DIRECTION('',(0.015192,0.000000,0.999885));
#1057 = DIRECTION('',(1.000000,0.000000,0.000000));
#1058 = AXIS2_PLACEMENT_3D('',#40,#1056,#1057);
#1059 = PLANE('',#1058);
#1060 = FACE_SURFACE('',(#1055),#1059,.T.);
#1061 = POLY_LOOP('',(#60,#61,#37));
#1062 = FACE_OUTER_BOUND('',#1061,.T.);
#1063 = DIRECTION('',(1.000000,0.000000,0.000000));
#1064 = DIRECTION('',(0.000000,1.000000,0.000000));
#1065 = AXIS2_PLACEMENT_3D('',#60,#1063,#1064);
#1066 = PLANE('',#1065);
#1067 = FACE_SURFACE('',(#1062),#1066,.T.);
#1068 = POLY_LOOP('',(#70,#63,#53));
#1069 = FACE_OUTER_BOUND('',#1068,.T.);
#1070 = DIRECTION('',(0.000057,0.000000,1.000000));
#1071 = DIRECTION('',(1.000000,0.000000,0.000000));
#1072 = AXIS2_PLACEMENT_3D('',#70,#1070,#1071);
#1073 = PLANE('',#1072);
#1074 = FACE_SURFACE('',(#1069),#1073,.T.);
#1075 = POLY_LOOP('',(#24,#40,#41));
#1076 = FACE_OUTER_BOUND('',#1075,.T.);
#1077 = DIRECTION('',(0.000000,0.000000,1.000000));
#1078 = DIRECTION('',(1.000000,0.000000,0.000000));
#1079 = AXIS2_PLACEMENT_3D('',#24,#1077,#1078);
#1080 = PLANE('',#1079);
#1081 = FACE_SURFACE('',(#1076),#1080,.T.);
#1082 = POLY_LOOP('',(#65,#43,#44));
#1083 = FACE_OUTER_BOUND('',#1082,.T.);
#1084 = DIRECTION('',(0.000000,0.000000,1.000000));
#1085 = DIRECTION('',(1.000000,0.000000,0.000000));
#1086 = AXIS2_PLACEMENT_3D('',#65,#1084,#1085);
#1087 = PLANE('',#1086);
#1088 = FACE_SURFACE('',(#1083),#1087,.T.);
#1089 = POLY_LOOP('',(#24,#23,#66));
#1090 = FACE_OUTER_BOUND('',#1089,.T.);
#1091 = DIRECTION('',(1.000000,0.000000,0.000000));
#1092 = DIRECTION('',(0.000000,1.000000,0.000000));
#1093 = AXIS2_PLACEMENT_3D('',#24,#1091,#1092);
#1094 = PLANE('',#1093);
#1095 = FACE_SURFACE('',(#1090),#1094,.T.);
#1096 = POLY_LOOP('',(#17,#18,#31));
#1097 = FACE_OUTER_BOUND('',#1096,.T.);
#1098 = DIRECTION('',(1.000000,0.000000,0.000000));
#1099 = DIRECTION('',(0.000000,1.000000,0.000000));
#1100 = AXIS2_PLACEMENT_3D('',#17,#1098,#1099);
#1101 = PLANE('',#1100);
#1102 = FACE_SURFACE('',(#1097),#1101,.T.);
#1103 = POLY_LOOP('',(#38,#39,#43));
#1104 = FACE_OUTER_BOUND('',#1103,.T.);
#1105 = DIRECTION('',(1.000000,0.000000,0.000001));
#1106 = DIRECTION('',(0.000000,1.000000,0.000000));
#1107 = AXIS2_PLACEMENT_3D('',#38,#1105,#1106);
#1108 = PLANE('',#1107);
#1109 = FACE_SURFACE('',(#1104),#1108,.T.);
#1110 = POLY_LOOP('',(#98,#30,#50));
#1111 = FACE_OUTER_BOUND('',#1110,.T.);
#1112 = DIRECTION('',(1.000000,0.000000,0.000000));
#1113 = DIRECTION('',(0.000000,1.000000,0.000000));
#1114 = AXIS2_PLACEMENT_3D('',#98,#1112,#1113);
#1115 = PLANE('',#1114);
#1116 = FACE_SURFACE('',(#1111),#1115,.T.);
#1117 = POLY_LOOP('',(#19,#99,#24));
#1118 = FACE_OUTER_BOUND('',#1117,.T.);
#1119 = DIRECTION('',(0.000000,0.000000,1.000000));
#1120 = DIRECTION('',(1.000000,0.000000,0.000000));
#1121 = AXIS2_PLACEMENT_3D('',#19,#1119,#1120);
#1122 = PLANE('',#1121);
#1123 = FACE_SURFACE('',(#1118),#1122,.T.);
#1124 = POLY_LOOP('',(#21,#88,#97));
#1125 = FACE_OUTER_BOUND('',#1124,.T.);
#1126 = DIRECTION('',(0.000000,0.232681,0.972553));
#1127 = DIRECTION('',(1.000000,0.000000,0.000000));
#1128 = AXIS2_PLACEMENT_3D('',#21,#1126,#1127);
#1129 = PLANE('',#1128);
#1130 = FACE_SURFACE('',(#1125),#1129,.T.);
#1131 = POLY_LOOP('',(#25,#18,#53));
#1132 = FACE_OUTER_BOUND('',#1131,.T.);
#1133 = DIRECTION('',(0.010902,0.999808,0.016301));
#1134 = DIRECTION('',(1.000000,0.000000,0.000000));
#1135 = AXIS2_PLACEMENT_3D('',#25,#1133,#1134);
#1136 = PLANE('',#1135);
#1137 = FACE_SURFACE('',(#1132),#1136,.T.);
#1138 = POLY_LOOP('',(#24,#19,#62));
#1139 = FACE_OUTER_BOUND('',#1138,.T.);
#1140 = DIRECTION('',(0.000000,0.000000,1.000000));
#1141 = DIRECTION('',(1.000000,0.000000,0.000000));
#1142 = AXIS2_PLACEMENT_3D('',#24,#1140,#1141);
#1143 = PLANE('',#1142);
#1144 = FACE_SURFACE('',(#1139),#1143,.T.);
#1145 = POLY_LOOP('',(#81,#80,#64));
#1146 = FACE_OUTER_BOUND('',#1145,.T.);
#1147 = DIRECTION('',(0.000057,0.000000,1.000000));
#1148 = DIRECTION('',(1.000000,0.000000,0.000000));
#1149 = AXIS2_PLACEMENT_3D('',#81,#1147,#1148);
#1150 = PLANE('',#1149);
#1151 = FACE_SURFACE('',(#1146),#1150,.T.);
#1152 = POLY_LOOP('',(#82,#83,#62));
#1153 = FACE_OUTER_BOUND('',#1152,.T.);
#1154 = DIRECTION('',(1.000000,0.000000,0.000000));
#1155 = DIRECTION('',(0.000000,1.000000,0.000000));
#1156 = AXIS2_PLACEMENT_3D('',#82,#1154,#1155);
#1157 = PLANE('',#1156);
#1158 = FACE_SURFACE('',(#1153),#1157,.T.);
#1159 = POLY_LOOP('',(#51,#18,#30));
#1160 = FACE_OUTER_BOUND('',#1159,.T.);
#1161 = DIRECTION('',(0.058675,0.998277,0.000000));
#1162 = DIRECTION('',(1.000000,0.000000,0.000000));
#1163 = AXIS2_PLACEMENT_3D('',#51,#1161,#1162);
#1164 = PLANE('',#1163);
#1165 = FACE_SURFACE('',(#1160),#1164,.T.);
#1166 = POLY_LOOP('',(#24,#67,#68));
#1167 = FACE_OUTER_BOUND('',#1166,.T.);
#1168 = DIRECTION('',(1.000000,0.000000,0.000000));
#1169 = DIRECTION('',(0.000000,1.000000,0.000000));
#1170 = AXIS2_PLACEMENT_3D('',#24,#1168,#1169);
#1171 = PLANE('',#1170);
#1172 = FACE_SURFACE('',(#1167),#1171,.T.);
#1173 = POLY_LOOP('',(#72,#74,#70));
#1174 = FACE_OUTER_BOUND('',#1173,.T.);
#1175 = DIRECTION('',(0.000000,0.000001,1.000000));
#1176 = DIRECTION('',(1.000000,0.000000,0.000000));
#1177 = AXIS2_PLACEMENT_3D('',#72,#1175,#1176);
#1178 = PLANE('',#1177);
#1179 = FACE_SURFACE('',(#1174),#1178,.T.);
#1180 = POLY_LOOP('',(#19,#17,#18));
#1181 = FACE_OUTER_BOUND('',#1180,.T.);
#1182 = DIRECTION('',(0.000004,1.000000,0.000226));
#1183 = DIRECTION('',(1.000000,0.000000,0.000000));
#1184 = AXIS2_PLACEMENT_3D('',#19,#1182,#1183);
#1185 = PLANE('',#1184);
#1186 = FACE_SURFACE('',(#1181),#1185,.T.);
#1187 = POLY_LOOP('',(#36,#18,#19));
#1188 = FACE_OUTER_BOUND('',#1187,.T.);
#1189 = DIRECTION('',(1.000000,0.000000,0.000000));
#1190 = DIRECTION('',(0.000000,1.000000,0.000000));
#1191 = AXIS2_PLACEMENT_3D('',#36,#1189,#1190);
#1192 = PLANE('',#1191);
#1193 = FACE_SURFACE('',(#1188),#1192,.T.);
#1194 = POLY_LOOP('',(#42,#45,#34));
#1195 = FACE_OUTER_BOUND('',#1194,.T.);
#1196 = DIRECTION('',(1.000000,0.000000,0.000000));
#1197 = DIRECTION('',(0.000000,1.000000,0.000000));
#1198 = AXIS2_PLACEMENT_3D('',#42,#1196,#1197);
#1199 = PLANE('',#1198);
#1200 = FACE_SURFACE('',(#1195),#1199,.T.);
#1201 = POLY_LOOP('',(#37,#18,#19));
#1202 = FACE_OUTER_BOUND('',#1201,.T.);
#1203 = DIRECTION('',(1.000000,0.000000,0.000000));
#1204 = DIRECTION('',(0.000000,1.000000,0.000000));
#1205 = AXIS2_PLACEMENT_3D('',#37,#1203,#1204);
#1206 = PLANE('',#1205);
#1207 = FACE_SURFACE('',(#1202),#1206,.T.);
#1208 = POLY_LOOP('',(#30,#87,#18));
#1209 = FACE_OUTER_BOUND('',#1208,.T.);
#1210 = DIRECTION('',(1.000000,0.000000,0.000000));
#1211 = DIRECTION('',(0.000000,1.000000,0.000000));
#1212 = AXIS2_PLACEMENT_3D('',#30,#1210,#1211);
#1213 = PLANE('',#1212);
#1214 = FACE_SURFACE('',(#1209),#1213,.T.);
#1215 = POLY_LOOP('',(#78,#85,#86));
#1216 = FACE_OUTER_BOUND('',#1215,.T.);
#1217 = DIRECTION('',(0.058675,0.998277,0.000000));
#1218 = DIRECTION('',(1.000000,0.000000,0.000000));
#1219 = AXIS2_PLACEMENT_3D('',#78,#1217,#1218);
#1220 = PLANE('',#1219);
#1221 = FACE_SURFACE('',(#1216),#1220,.T.);
#1222 = POLY_LOOP('',(#79,#87,#18));
#1223 = FACE_OUTER_BOUND('',#1222,.T.);
#1224 = DIRECTION('',(0.000000,0.000000,1.000000));
#1225 = DIRECTION('',(1.000000,0.000000,0.000000));
#1226 = AXIS2_PLACEMENT_3D('',#79,#1224,#1225);
#1227 = PLANE('',#1226);
#1228 = FACE_SURFACE('',(#1223),#1227,.T.);
#1229 = POLY_LOOP('',(#29,#18,#19));
#1230 = FACE_OUTER_BOUND('',#1229,.T.);
#1231 = DIRECTION('',(0.703174,0.711017,0.000000));
#1232 = DIRECTION('',(1.000000,0.000000,0.000000));
#1233 = AXIS2_PLACEMENT_3D('',#29,#1231,#1232);
#1234 = PLANE('',#1233);
#1235 = FACE_SURFACE('',(#1230),#1234,.T.);
#1236 = POLY_LOOP('',(#24,#81,#80));
#1237 = FACE_OUTER_BOUND('',#1236,.T.);
#1238 = DIRECTION('',(1.000000,0.000000,0.000000));
#1239 = DIRECTION('',(0.000000,1.000000,0.000000));
#1240 = AXIS2_PLACEMENT_3D('',#24,#1238,#1239);
#1241 = PLANE('',#1240);
#1242 = FACE_SURFACE('',(#1237),#1241,.T.);
#1243 = POLY_LOOP('',(#97,#60,#61));
#1244 = FACE_OUTER_BOUND('',#1243,.T.);
#1245 = DIRECTION('',(0.000000,0.000000,1.000000));
#1246 = DIRECTION('',(1.000000,0.000000,0.000000));
#1247 = AXIS2_PLACEMENT_3D('',#97,#1245,#1246);
#1248 = PLANE('',#1247);
#1249 = FACE_SURFACE('',(#1244),#1248,.T.);
#1250 = POLY_LOOP('',(#24,#25,#18));
#1251 = FACE_OUTER_BOUND('',#1250,.T.);
#1252 = DIRECTION('',(1.000000,0.000000,0.000000));
#1253 = DIRECTION('',(0.000000,1.000000,0.000000));
#1254 = AXIS2_PLACEMENT_3D('',#24,#1252,#1253);
#1255 = PLANE('',#1254);
#1256 = FACE_SURFACE('',(#1251),#1255,.T.);
#1257 = POLY_LOOP('',(#50,#18,#30));
#1258 = FACE_OUTER_BOUND('',#1257,.T.);
#1259 = DIRECTION('',(0.000000,1.000000,0.000000));
#1260 = DIRECTION('',(1.000000,0.000000,0.000000));
#1261 = AXIS2_PLACEMENT_3D('',#50,#1259,#1260);
#1262 = PLANE('',#1261);
#1263 = FACE_SURFACE('',(#1258),#1262,.T.);
#1264 = POLY_LOOP('',(#48,#52,#18));
#1265 = FACE_OUTER_BOUND('',#1264,.T.);
#1266 = DIRECTION('',(0.000000,1.000000,0.000000));
#1267 = DIRECTION('',(1.000000,0.000000,0.000000));
#1268 = AXIS2_PLACEMENT_3D('',#48,#1266,#1267);
#1269 = PLANE('',#1268);
#1270 = FACE_SURFACE('',(#1265),#1269,.T.);
#1271 = POLY_LOOP('',(#51,#18,#30));
#1272 = FACE_OUTER_BOUND('',#1271,.T.);
#1273 = DIRECTION('',(0.999867,0.016302,0.000000));
#1274 = DIRECTION('',(0.000000,1.000000,0.000000));
#1275 = AXIS2_PLACEMENT_3D('',#51,#1273,#1274);
#1276 = PLANE('',#1275);
#1277 = FACE_SURFACE('',(#1272),#1276,.T.);
#1278 = POLY_LOOP('',(#18,#19,#17));
#1279 = FACE_OUTER_BOUND('',#1278,.T.);
#1280 = DIRECTION('',(1.000000,0.000000,0.000000));
#1281 = DIRECTION('',(0.000000,1.000000,0.000000));
#1282 = AXIS2_PLACEMENT_3D('',#18,#1280,#1281);
#1283 = PLANE('',#1282);
#1284 = FACE_SURFACE('',(#1279),#1283,.T.);
#1285 = POLY_LOOP('',(#40,#41,#42));
#1286 = FACE_OUTER_BOUND('',#1285,.T.);
#1287 = DIRECTION('',(0.015192,0.000000,0.999885));
#1288 = DIRECTION('',(1.000000,0.000000,0.000000));
#1289 = AXIS2_PLACEMENT_3D('',#40,#1287,#1288);
#1290 = PLANE('',#1289);
#1291 = FACE_SURFACE('',(#1286),#1290,.T.);
#1292 = POLY_LOOP('',(#60,#61,#37));
#1293 = FACE_OUTER_BOUND('',#1292,.T.);
#1294 = DIRECTION('',(1.000000,0.000000,0.000000));
#1295 = DIRECTION('',(0.000000,1.000000,0.000000));
#1296 = AXIS2_PLACEMENT_3D('',#60,#1294,#1295);
#1297 = PLANE('',#1296);
#1298 = FACE_SURFACE('',(#1293),#1297,.T.);
#1299 = POLY_LOOP('',(#23,#66,#24));
#1300 = FACE_OUTER_BOUND('',#1299,.T.);
#1301 = DIRECTION('',(0.000057,0.000004,1.000000));
#1302 = DIRECTION('',(1.000000,0.000000,0.000000));
#1303 = AXIS2_PLACEMENT_3D('',#23,#1301,#1302);
#1304 = PLANE('',#1303);
#1305 = FACE_SURFACE('',(#1300),#1304,.T.);
#1306 = POLY_LOOP('',(#18,#24,#81));
#1307 = FACE_OUTER_BOUND('',#1306,.T.);
#1308 = DIRECTION('',(0.000000,0.000000,1.000000));
#1309 = DIRECTION('',(1.000000,0.000000,0.000000));
#1310 = AXIS2_PLACEMENT_3D('',#18,#1308,#1309);
#1311 = PLANE('',#1310);
#1312 = FACE_SURFACE('',(#1307),#1311,.T.);
#1313 = POLY_LOOP('',(#88,#97,#82));
#1314 = FACE_OUTER_BOUND('',#1313,.T.);
#1315 = DIRECTION('',(0.000000,0.253545,0.967323));
#1316 = DIRECTION('',(1.000000,0.000000,0.000000));
#1317 = AXIS2_PLACEMENT_3D('',#88,#1315,#1316);
#1318 = PLANE('',#1317);
#1319 = FACE_SURFACE('',(#1314),#1318,.T.);
#1320 = POLY_LOOP('',(#63,#24,#70));
#1321 = FACE_OUTER_BOUND('',#1320,.T.);
#1322 = DIRECTION('',(0.000000,0.000000,1.000000));
#1323 = DIRECTION('',(1.000000,0.000000,0.000000));
#1324 = AXIS2_PLACEMENT_3D('',#63,#1322,#1323);
#1325 = PLANE('',#1324);
#1326 = FACE_SURFACE('',(#1321),#1325,.T.);
#1327 = POLY_LOOP('',(#30,#50,#18));
#1328 = FACE_OUTER_BOUND('',#1327,.T.);
#1329 = DIRECTION('',(0.000000,0.000000,1.000000));
#1330 = DIRECTION('',(1.000000,0.000000,0.000000));
#1331 = AXIS2_PLACEMENT_3D('',#30,#1329,#1330);
#1332 = PLANE('',#1331);
#1333 = FACE_SURFACE('',(#1328),#1332,.T.);
#1334 = POLY_LOOP('',(#47,#48,#52));
#1335 = FACE_OUTER_BOUND('',#1334,.T.);
#1336 = DIRECTION('',(1.000000,0.000000,0.000000));
#1337 = DIRECTION('',(0.000000,1.000000,0.000000));
#1338 = AXIS2_PLACEMENT_3D('',#47,#1336,#1337);
#1339 = PLANE('',#1338);
#1340 = FACE_SURFACE('',(#1335),#1339,.T.);
#1341 = POLY_LOOP('',(#75,#29,#18));
#1342 = FACE_OUTER_BOUND('',#1341,.T.);
#1343 = DIRECTION('',(0.000000,0.000000,1.000000));
#1344 = DIRECTION('',(1.000000,0.000000,0.000000));
#1345 = AXIS2_PLACEMENT_3D('',#75,#1343,#1344);
#1346 = PLANE('',#1345);
#1347 = FACE_SURFACE('',(#1342),#1346,.T.);
#1348 = POLY_LOOP('',(#62,#24,#19));
#1349 = FACE_OUTER_BOUND('',#1348,.T.);
#1350 = DIRECTION('',(1.000000,0.000000,0.000000));
#1351 = DIRECTION('',(0.000000,1.000000,0.000000));
#1352 = AXIS2_PLACEMENT_3D('',#62,#1350,#1351);
#1353 = PLANE('',#1352);
#1354 = FACE_SURFACE('',(#1349),#1353,.T.);
#1355 = POLY_LOOP('',(#24,#67,#68));
#1356 = FACE_OUTER_BOUND('',#1355,.T.);
#1357 = DIRECTION('',(1.000000,0.000000,0.000000));
#1358 = DIRECTION('',(0.000000,1.000000,0.000000));
#1359 = AXIS2_PLACEMENT_3D('',#24,#1357,#1358);
#1360 = PLANE('',#1359);
#1361 = FACE_SURFACE('',(#1356),#1360,.T.);
#1362 = POLY_LOOP('',(#72,#74,#70));
#1363 = FACE_OUTER_BOUND('',#1362,.T.);
#1364 = DIRECTION('',(0.000000,0.000001,1.000000));
#1365 = DIRECTION('',(1.000000,0.000000,0.000000));
#1366 = AXIS2_PLACEMENT_3D('',#72,#1364,#1365);
#1367 = PLANE('',#1366);
#1368 = FACE_SURFACE('',(#1363),#1367,.T.);
#1369 = POLY_LOOP('',(#24,#25,#18));
#1370 = FACE_OUTER_BOUND('',#1369,.T.);
#1371 = DIRECTION('',(0.000003,0.003820,0.999993));
#1372 = DIRECTION('',(1.000000,0.000000,0.000000));
#1373 = AXIS2_PLACEMENT_3D('',#24,#1371,#1372);
#1374 = PLANE('',#1373);
#1375 = FACE_SURFACE('',(#1370),#1374,.T.);
#1376 = POLY_LOOP('',(#50,#18,#30));
#1377 = FACE_OUTER_BOUND('',#1376,.T.);
#1378 = DIRECTION('',(0.000000,1.000000,0.000000));
#1379 = DIRECTION('',(1.000000,0.000000,0.000000));
#1380 = AXIS2_PLACEMENT_3D('',#50,#1378,#1379);
#1381 = PLANE('',#1380);
#1382 = FACE_SURFACE('',(#1377),#1381,.T.);
#1383 = POLY_LOOP('',(#95,#77,#18));
#1384 = FACE_OUTER_BOUND('',#1383,.T.);
#1385 = DIRECTION('',(0.232681,0.972553,0.000000));
#1386 = DIRECTION('',(1.000000,0.000000,0.000000));
#1387 = AXIS2_PLACEMENT_3D('',#95,#1385,#1386);
#1388 = PLANE('',#1387);
#1389 = FACE_SURFACE('',(#1384),#1388,.T.);
#1390 = POLY_LOOP('',(#51,#18,#26));
#1391 = FACE_OUTER_BOUND('',#1390,.T.);
#1392 = DIRECTION('',(0.999867,0.016302,0.000000));
#1393 = DIRECTION('',(0.000000,1.000000,0.000000));
#1394 = AXIS2_PLACEMENT_3D('',#51,#1392,#1393);
#1395 = PLANE('',#1394);
#1396 = FACE_SURFACE('',(#1391),#1395,.T.);
#1397 = POLY_LOOP('',(#18,#19,#17));
#1398 = FACE_OUTER_BOUND('',#1397,.T.);
#1399 = DIRECTION('',(0.000000,1.000000,0.000000));
#1400 = DIRECTION('',(1.000000,0.000000,0.000000));
#1401 = AXIS2_PLACEMENT_3D('',#18,#1399,#1400);
#1402 = PLANE('',#1401);
#1403 = FACE_SURFACE('',(#1398),#1402,.T.);
#1404 = POLY_LOOP('',(#31,#32,#33));
#1405 = FACE_OUTER_BOUND('',#1404,.T.);
#1406 = DIRECTION('',(0.000896,0.063802,0.997962));
#1407 = DIRECTION('',(1.000000,0.000000,0.000000));
#1408 = AXIS2_PLACEMENT_3D('',#31,#1406,#1407);
#1409 = PLANE('',#1408);
#1410 = FACE_SURFACE('',(#1405),#1409,.T.);
#1411 = POLY_LOOP('',(#34,#35,#17));
#1412 = FACE_OUTER_BOUND('',#1411,.T.);
#1413 = DIRECTION('',(0.999891,0.014790,0.000000));
#1414 = DIRECTION('',(0.000000,1.000000,0.000000));
#1415 = AXIS2_PLACEMENT_3D('',#34,#1413,#1414);
#1416 = PLANE('',#1415);
#1417 = FACE_SURFACE('',(#1412),#1416,.T.);
#1418 = POLY_LOOP('',(#19,#17,#18));
#1419 = FACE_OUTER_BOUND('',#1418,.T.);
#1420 = DIRECTION('',(0.000000,0.000000,1.000000));
#1421 = DIRECTION('',(1.000000,0.000000,0.000000));
#1422 = AXIS2_PLACEMENT_3D('',#19,#1420,#1421);
#1423 = PLANE('',#1422);
#1424 = FACE_SURFACE('',(#1419),#1423,.T.);
#1425 = POLY_LOOP('',(#37,#18,#19));
#1426 = FACE_OUTER_BOUND('',#1425,.T.);
#1427 = DIRECTION('',(1.000000,0.000000,0.000000));
#1428 = DIRECTION('',(0.000000,1.000000,0.000000));
#1429 = AXIS2_PLACEMENT_3D('',#37,#1427,#1428);
#1430 = PLANE('',#1429);
#1431 = FACE_SURFACE('',(#1426),#1430,.T.);
#1432 = POLY_LOOP('',(#42,#45,#100));
#1433 = FACE_OUTER_BOUND('',#1432,.T.);
#1434 = DIRECTION('',(1.000000,0.000000,0.000000));
#1435 = DIRECTION('',(0.000000,1.000000,0.000000));
#1436 = AXIS2_PLACEMENT_3D('',#42,#1434,#1435);
#1437 = PLANE('',#1436);
#1438 = FACE_SURFACE('',(#1433),#1437,.T.);
#1439 = POLY_LOOP('',(#17,#18,#19));
#1440 = FACE_OUTER_BOUND('',#1439,.T.);
#1441 = DIRECTION('',(1.000000,0.000000,0.000000));
#1442 = DIRECTION('',(0.000000,1.000000,0.000000));
#1443 = AXIS2_PLACEMENT_3D('',#17,#1441,#1442);
#1444 = PLANE('',#1443);
#1445 = FACE_SURFACE('',(#1440),#1444,.T.);
#1446 = POLY_LOOP('',(#18,#19,#17));
#1447 = FACE_OUTER_BOUND('',#1446,.T.);
#1448 = DIRECTION('',(1.000000,0.000000,0.000000));
#1449 = DIRECTION('',(0.000000,1.000000,0.000000));
#1450 = AXIS2_PLACEMENT_3D('',#18,#1448,#1449);
#1451 = PLANE('',#1450);
#1452 = FACE_SURFACE('',(#1447),#1451,.T.);
#1453 = POLY_LOOP('',(#19,#92,#27));
#1454 = FACE_OUTER_BOUND('',#1453,.T.);
#1455 = DIRECTION('',(0.000000,0.000000,1.000000));
#1456 = DIRECTION('',(1.000000,0.000000,0.000000));
#1457 = AXIS2_PLACEMENT_3D('',#19,#1455,#1456);
#1458 = PLANE('',#1457);
#1459 = FACE_SURFACE('',(#1454),#1458,.T.);
#1460 = POLY_LOOP('',(#46,#75,#29));
#1461 = FACE_OUTER_BOUND('',#1460,.T.);
#1462 = DIRECTION('',(1.000000,0.000000,0.000000));
#1463 = DIRECTION('',(0.000000,1.000000,0.000000));
#1464 = AXIS2_PLACEMENT_3D('',#46,#1462,#1463);
#1465 = PLANE('',#1464);
#1466 = FACE_SURFACE('',(#1461),#1465,.T.);
#1467 = POLY_LOOP('',(#25,#18,#23));
#1468 = FACE_OUTER_BOUND('',#1467,.T.);
#1469 = DIRECTION('',(0.003668,0.058675,0.998270));
#1470 = DIRECTION('',(1.000000,0.000000,0.000000));
#1471 = AXIS2_PLACEMENT_3D('',#25,#1469,#1470);
#1472 = PLANE('',#1471);
#1473 = FACE_SURFACE('',(#1468),#1472,.T.);
#1474 = POLY_LOOP('',(#26,#94,#95));
#1475 = FACE_OUTER_BOUND('',#1474,.T.);
#1476 = DIRECTION('',(0.000000,0.000000,1.000000));
#1477 = DIRECTION('',(1.000000,0.000000,0.000000));
#1478 = AXIS2_PLACEMENT_3D('',#26,#1476,#1477);
#1479 = PLANE('',#1478);
#1480 = FACE_SURFACE('',(#1475),#1479,.T.);
#1481 = POLY_LOOP('',(#18,#79,#87));
#1482 = FACE_OUTER_BOUND('',#1481,.T.);
#1483 = DIRECTION('',(0.997879,0.065098,0.000000));
#1484 = DIRECTION('',(0.000000,1.000000,0.000000));
#1485 = AXIS2_PLACEMENT_3D('',#18,#1483,#1484);
#1486 = PLANE('',#1485);
#1487 = FACE_SURFACE('',(#1482),#1486,.T.);
#1488 = POLY_LOOP('',(#87,#19,#19));
#1489 = FACE_OUTER_BOUND('',#1488,.T.);
#1490 = DIRECTION('',(0.000000,0.000000,1.000000));
#1491 = DIRECTION('',(1.000000,0.000000,0.000000));
#1492 = AXIS2_PLACEMENT_3D('',#87,#1490,#1491);
#1493 = PLANE('',#1492);
#1494 = FACE_SURFACE('',(#1489),#1493,.T.);
#1495 = POLY_LOOP('',(#18,#92,#27));
#1496 = FACE_OUTER_BOUND('',#1495,.T.);
#1497 = DIRECTION('',(1.000000,0.000000,0.000000));
#1498 = DIRECTION('',(0.000000,1.000000,0.000000));
#1499 = AXIS2_PLACEMENT_3D('',#18,#1497,#1498);
#1500 = PLANE('',#1499);
#1501 = FACE_SURFACE('',(#1496),#1500,.T.);
#1502 = POLY_LOOP('',(#46,#75,#29));
#1503 = FACE_OUTER_BOUND('',#1502,.T.);
#1504 = DIRECTION('',(1.000000,0.000000,0.000000));
#1505 = DIRECTION('',(0.000000,1.000000,0.000000));
#1506 = AXIS2_PLACEMENT_3D('',#46,#1504,#1505);
#1507 = PLANE('',#1506);
#1508 = FACE_SURFACE('',(#1503),#1507,.T.);
#1509 = POLY_LOOP('',(#96,#18,#51));
#1510 = FACE_OUTER_BOUND('',#1509,.T.);
#1511 = DIRECTION('',(0.015625,0.999878,0.000000));
#1512 = DIRECTION('',(1.000000,0.000000,0.000000));
#1513 = AXIS2_PLACEMENT_3D('',#96,#1511,#1512);
#1514 = PLANE('',#1513);
#1515 = FACE_SURFACE('',(#1510),#1514,.T.);
#1516 = POLY_LOOP('',(#94,#95,#77));
#1517 = FACE_OUTER_BOUND('',#1516,.T.);
#1518 = DIRECTION('',(0.015625,0.999878,0.000000));
#1519 = DIRECTION('',(1.000000,0.000000,0.000000));
#1520 = AXIS2_PLACEMENT_3D('',#94,#1518,#1519);
#1521 = PLANE('',#1520);
#1522 = FACE_SURFACE('',(#1517),#1521,.T.);
#1523 = POLY_LOOP('',(#93,#51,#18));
#1524 = FACE_OUTER_BOUND('',#1523,.T.);
#1525 = DIRECTION('',(0.000000,0.000000,1.000000));
#1526 = DIRECTION('',(1.000000,0.000000,0.000000));
#1527 = AXIS2_PLACEMENT_3D('',#93,#1525,#1526);
#1528 = PLANE('',#1527);
#1529 = FACE_SURFACE('',(#1524),#1528,.T.);
#1530 = POLY_LOOP('',(#18,#50,#18));
#1531 = FACE_OUTER_BOUND('',#1530,.T.);
#1532 = DIRECTION('',(0.000000,1.000000,0.000000));
#1533 = DIRECTION('',(1.000000,0.000000,0.000000));
#1534 = AXIS2_PLACEMENT_3D('',#18,#1532,#1533);
#1535 = PLANE('',#1534);
#1536 = FACE_SURFACE('',(#1531),#1535,.T.);
#1537 = POLY_LOOP('',(#89,#73,#18));
#1538 = FACE_OUTER_BOUND('',#1537,.T.);
#1539 = DIRECTION('',(0.000000,1.000000,0.000000));
#1540 = DIRECTION('',(1.000000,0.000000,0.000000));
#1541 = AXIS2_PLACEMENT_3D('',#89,#1539,#1540);
#1542 = PLANE('',#1541);
#1543 = FACE_SURFACE('',(#1538),#1542,.T.);
#1544 = POLY_LOOP('',(#54,#19,#25));
#1545 = FACE_OUTER_BOUND('',#1544,.T.);
#1546 = DIRECTION('',(1.000000,0.000000,0.000978));
#1547 = DIRECTION('',(0.000000,1.000000,0.000000));
#1548 = AXIS2_PLACEMENT_3D('',#54,#1546,#1547);
#1549 = PLANE('',#1548);
#1550 = FACE_SURFACE('',(#1545),#1549,.T.);
#1551 = POLY_LOOP('',(#19,#37,#18));
#1552 = FACE_OUTER_BOUND('',#1551,.T.);
#1553 = DIRECTION('',(0.000000,0.062390,0.998052));
#1554 = DIRECTION('',(1.000000,0.000000,0.000000));
#1555 = AXIS2_PLACEMENT_3D('',#19,#1553,#1554);
#1556 = PLANE('',#1555);
#1557 = FACE_SURFACE('',(#1552),#1556,.T.);
#1558 = POLY_LOOP('',(#42,#45,#34));
#1559 = FACE_OUTER_BOUND('',#1558,.T.);
#1560 = DIRECTION('',(1.000000,0.000000,0.000000));
#1561 = DIRECTION('',(0.000000,1.000000,0.000000));
#1562 = AXIS2_PLACEMENT_3D('',#42,#1560,#1561);
#1563 = PLANE('',#1562);
#1564 = FACE_SURFACE('',(#1559),#1563,.T.);
#1565 = POLY_LOOP('',(#37,#30,#87));
#1566 = FACE_OUTER_BOUND('',#1565,.T.);
#1567 = DIRECTION('',(1.000000,0.000000,0.000000));
#1568 = DIRECTION('',(0.000000,1.000000,0.000000));
#1569 = AXIS2_PLACEMENT_3D('',#37,#1567,#1568);
#1570 = PLANE('',#1569);
#1571 = FACE_SURFACE('',(#1566),#1570,.T.);
#1572 = POLY_LOOP('',(#50,#24,#40));
#1573 = FACE_OUTER_BOUND('',#1572,.T.);
#1574 = DIRECTION('',(0.999895,0.014458,0.000000));
#1575 = DIRECTION('',(0.000000,1.000000,0.000000));
#1576 = AXIS2_PLACEMENT_3D('',#50,#1574,#1575);
#1577 = PLANE('',#1576);
#1578 = FACE_SURFACE('',(#1573),#1577,.T.);
#1579 = POLY_LOOP('',(#64,#65,#43));
#1580 = FACE_OUTER_BOUND('',#1579,.T.);
#1581 = DIRECTION('',(0.000000,0.999984,0.005620));
#1582 = DIRECTION('',(1.000000,0.000000,0.000000));
#1583 = AXIS2_PLACEMENT_3D('',#64,#1581,#1582);
#1584 = PLANE('',#1583);
#1585 = FACE_SURFACE('',(#1580),#1584,.T.);
#1586 = POLY_LOOP('',(#98,#30,#50));
#1587 = FACE_OUTER_BOUND('',#1586,.T.);
#1588 = DIRECTION('',(1.000000,0.000000,0.000000));
#1589 = DIRECTION('',(0.000000,1.000000,0.000000));
#1590 = AXIS2_PLACEMENT_3D('',#98,#1588,#1589);
#1591 = PLANE('',#1590);
#1592 = FACE_SURFACE('',(#1587),#1591,.T.);
#1593 = POLY_LOOP('',(#50,#18,#55));
#1594 = FACE_OUTER_BOUND('',#1593,.T.);
#1595 = DIRECTION('',(1.000000,0.000883,0.000000));
#1596 = DIRECTION('',(0.000000,1.000000,0.000000));
#1597 = AXIS2_PLACEMENT_3D('',#50,#1595,#1596);
#1598 = PLANE('',#1597);
#1599 = FACE_SURFACE('',(#1594),#1598,.T.);
#1600 = POLY_LOOP('',(#86,#18,#90));
#1601 = FACE_OUTER_BOUND('',#1600,.T.);
#1602 = DIRECTION('',(1.000000,0.000000,0.000000));
#1603 = DIRECTION('',(0.000000,1.000000,0.000000));
#1604 = AXIS2_PLACEMENT_3D('',#86,#1602,#1603);
#1605 = PLANE('',#1604);
#1606 = FACE_SURFACE('',(#1601),#1605,.T.);
#1607 = POLY_LOOP('',(#18,#54,#19));
#1608 = FACE_OUTER_BOUND('',#1607,.T.);
#1609 = DIRECTION('',(0.000000,0.000000,1.000000));
#1610 = DIRECTION('',(1.000000,0.000000,0.000000));
#1611 = AXIS2_PLACEMENT_3D('',#18,#1609,#1610);
#1612 = PLANE('',#1611);
#1613 = FACE_SURFACE('',(#1608),#1612,.T.);
#1614 = POLY_LOOP('',(#62,#30,#55));
#1615 = FACE_OUTER_BOUND('',#1614,.T.);
#1616 = DIRECTION('',(1.000000,0.000000,0.000000));
#1617 = DIRECTION('',(0.000000,1.000000,0.000000));
#1618 = AXIS2_PLACEMENT_3D('',#62,#1616,#1617);
#1619 = PLANE('',#1618);
#1620 = FACE_SURFACE('',(#1615),#1619,.T.);
#1621 = POLY_LOOP('',(#86,#18,#57));
#1622 = FACE_OUTER_BOUND('',#1621,.T.);
#1623 = DIRECTION('',(1.000000,0.000000,0.000000));
#1624 = DIRECTION('',(0.000000,1.000000,0.000000));
#1625 = AXIS2_PLACEMENT_3D('',#86,#1623,#1624);
#1626 = PLANE('',#1625);
#1627 = FACE_SURFACE('',(#1622),#1626,.T.);
#1628 = POLY_LOOP('',(#19,#19,#36));
#1629 = FACE_OUTER_BOUND('',#1628,.T.);
#1630 = DIRECTION('',(0.000000,1.000000,0.000000));
#1631 = DIRECTION('',(1.000000,0.000000,0.000000));
#1632 = AXIS2_PLACEMENT_3D('',#19,#1630,#1631);
#1633 = PLANE('',#1632);
#1634 = FACE_SURFACE('',(#1629),#1633,.T.);
#1635 = POLY_LOOP('',(#37,#18,#47));
#1636 = FACE_OUTER_BOUND('',#1635,.T.);
#1637 = DIRECTION('',(0.000000,0.000000,1.000000));
#1638 = DIRECTION('',(1.000000,0.000000,0.000000));
#1639 = AXIS2_PLACEMENT_3D('',#37,#1637,#1638);
#1640 = PLANE('',#1639);
#1641 = FACE_SURFACE('',(#1636),#1640,.T.);
#1642 = POLY_LOOP('',(#101,#18,#49));
#1643 = FACE_OUTER_BOUND('',#1642,.T.);
#1644 = DIRECTION('',(0.997970,0.000000,0.063681));
#1645 = DIRECTION('',(0.000000,1.000000,0.000000));
#1646 = AXIS2_PLACEMENT_3D('',#101,#1644,#1645);
#1647 = PLANE('',#1646);
#1648 = FACE_SURFACE('',(#1643),#1647,.T.);
#1649 = POLY_LOOP('',(#18,#51,#24));
#1650 = FACE_OUTER_BOUND('',#1649,.T.);
#1651 = DIRECTION('',(0.000000,1.000000,0.000000));
#1652 = DIRECTION('',(1.000000,0.000000,0.000000));
#1653 = AXIS2_PLACEMENT_3D('',#18,#1651,#1652);
#1654 = PLANE('',#1653);
#1655 = FACE_SURFACE('',(#1650),#1654,.T.);
#1656 = POLY_LOOP('',(#63,#26,#94));
#1657 = FACE_OUTER_BOUND('',#1656,.T.);
#1658 = DIRECTION('',(0.000000,0.000000,1.000000));
#1659 = DIRECTION('',(1.000000,0.000000,0.000000));
#1660 = AXIS2_PLACEMENT_3D('',#63,#1658,#1659);
#1661 = PLANE('',#1660);
#1662 = FACE_SURFACE('',(#1657),#1661,.T.);
#1663 = POLY_LOOP('',(#28,#18,#49));
#1664 = FACE_OUTER_BOUND('',#1663,.T.);
#1665 = DIRECTION('',(0.001405,0.000000,0.999999));
#1666 = DIRECTION('',(1.000000,0.000000,0.000000));
#1667 = AXIS2_PLACEMENT_3D('',#28,#1665,#1666);
#1668 = PLANE('',#1667);
#1669 = FACE_SURFACE('',(#1664),#1668,.T.);
#1670 = POLY_LOOP('',(#18,#19,#17));
#1671 = FACE_OUTER_BOUND('',#1670,.T.);
#1672 = DIRECTION('',(0.000000,1.000000,0.000000));
#1673 = DIRECTION('',(1.000000,0.000000,0.000000));
#1674 = AXIS2_PLACEMENT_3D('',#18,#1672,#1673);
#1675 = PLANE('',#1674);
#1676 = FACE_SURFACE('',(#1671),#1675,.T.);
#1677 = POLY_LOOP('',(#87,#18,#30));
#1678 = FACE_OUTER_BOUND('',#1677,.T.);
#1679 = DIRECTION('',(1.000000,0.000000,0.000000));
#1680 = DIRECTION('',(0.000000,1.000000,0.000000));
#1681 = AXIS2_PLACEMENT_3D('',#87,#1679,#1680);
#1682 = PLANE('',#1681);
#1683 = FACE_SURFACE('',(#1678),#1682,.T.);
#1684 = POLY_LOOP('',(#95,#77,#18));
#1685 = FACE_OUTER_BOUND('',#1684,.T.);
#1686 = DIRECTION('',(0.232681,0.972553,0.000000));
#1687 = DIRECTION('',(1.000000,0.000000,0.000000));
#1688 = AXIS2_PLACEMENT_3D('',#95,#1686,#1687);
#1689 = PLANE('',#1688);
#1690 = FACE_SURFACE('',(#1685),#1689,.T.);
#1691 = POLY_LOOP('',(#50,#18,#18));
#1692 = FACE_OUTER_BOUND('',#1691,.T.);
#1693 = DIRECTION('',(0.000001,1.000000,0.000000));
#1694 = DIRECTION('',(1.000000,0.000000,0.000000));
#1695 = AXIS2_PLACEMENT_3D('',#50,#1693,#1694);
#1696 = PLANE('',#1695);
#1697 = FACE_SURFACE('',(#1692),#1696,.T.);
#1698 = POLY_LOOP('',(#24,#25,#18));
#1699 = FACE_OUTER_BOUND('',#1698,.T.);
#1700 = DIRECTION('',(1.000000,0.000000,0.000000));
#1701 = DIRECTION('',(0.000000,1.000000,0.000000));
#1702 = AXIS2_PLACEMENT_3D('',#24,#1700,#1701);
#1703 = PLANE('',#1702);
#1704 = FACE_SURFACE('',(#1699),#1703,.T.);
#1705 = POLY_LOOP('',(#76,#89,#73));
#1706 = FACE_OUTER_BOUND('',#1705,.T.);
#1707 = DIRECTION('',(0.000000,1.000000,0.000000));
#1708 = DIRECTION('',(1.000000,0.000000,0.000000));
#1709 = AXIS2_PLACEMENT_3D('',#76,#1707,#1708);
#1710 = PLANE('',#1709);
#1711 = FACE_SURFACE('',(#1706),#1710,.T.);
#1712 = POLY_LOOP('',(#90,#54,#18));
#1713 = FACE_OUTER_BOUND('',#1712,.T.);
#1714 = DIRECTION('',(0.000000,0.000000,1.000000));
#1715 = DIRECTION('',(1.000000,0.000000,0.000000));
#1716 = AXIS2_PLACEMENT_3D('',#90,#1714,#1715);
#1717 = PLANE('',#1716);
#1718 = FACE_SURFACE('',(#1713),#1717,.T.);
#1719 = POLY_LOOP('',(#51,#18,#23));
#1720 = FACE_OUTER_BOUND('',#1719,.T.);
#1721 = DIRECTION('',(0.058675,0.998277,0.000000));
#1722 = DIRECTION('',(1.000000,0.000000,0.000000));
#1723 = AXIS2_PLACEMENT_3D('',#51,#1721,#1722);
#1724 = PLANE('',#1723);
#1725 = FACE_SURFACE('',(#1720),#1724,.T.);
#1726 = POLY_LOOP('',(#18,#47,#48));
#1727 = FACE_OUTER_BOUND('',#1726,.T.);
#1728 = DIRECTION('',(0.000000,0.237495,0.971389));
#1729 = DIRECTION('',(1.000000,0.000000,0.000000));
#1730 = AXIS2_PLACEMENT_3D('',#18,#1728,#1729);
#1731 = PLANE('',#1730);
#1732 = FACE_SURFACE('',(#1727),#1731,.T.);
#1733 = POLY_LOOP('',(#100,#93,#51));
#1734 = FACE_OUTER_BOUND('',#1733,.T.);
#1735 = DIRECTION('',(0.000000,1.000000,0.000000));
#1736 = DIRECTION('',(1.000000,0.000000,0.000000));
#1737 = AXIS2_PLACEMENT_3D('',#100,#1735,#1736);
#1738 = PLANE('',#1737);
#1739 = FACE_SURFACE('',(#1734),#1738,.T.);
#1740 = POLY_LOOP('',(#25,#18,#18));
#1741 = FACE_OUTER_BOUND('',#1740,.T.);
#1742 = DIRECTION('',(0.000000,0.000000,1.000000));
#1743 = DIRECTION('',(1.000000,0.000000,0.000000));
#1744 = AXIS2_PLACEMENT_3D('',#25,#1742,#1743);
#1745 = PLANE('',#1744);
#1746 = FACE_SURFACE('',(#1741),#1745,.T.);
#1747 = POLY_LOOP('',(#18,#78,#85));
#1748 = FACE_OUTER_BOUND('',#1747,.T.);
#1749 = DIRECTION('',(1.000000,0.000000,0.000000));
#1750 = DIRECTION('',(0.000000,1.000000,0.000000));
#1751 = AXIS2_PLACEMENT_3D('',#18,#1749,#1750);
#1752 = PLANE('',#1751);
#1753 = FACE_SURFACE('',(#1748),#1752,.T.);
#1754 = POLY_LOOP('',(#18,#49,#50));
#1755 = FACE_OUTER_BOUND('',#1754,.T.);
#1756 = DIRECTION('',(0.000001,0.999891,0.014790));
#1757 = DIRECTION('',(1.000000,0.000000,0.000000));
#1758 = AXIS2_PLACEMENT_3D('',#18,#1756,#1757);
#1759 = PLANE('',#1758);
#1760 = FACE_SURFACE('',(#1755),#1759,.T.);
#1761 = POLY_LOOP('',(#25,#18,#18));
#1762 = FACE_OUTER_BOUND('',#1761,.T.);
#1763 = DIRECTION('',(0.000000,0.000000,1.000000));
#1764 = DIRECTION('',(1.000000,0.000000,0.000000));
#1765 = AXIS2_PLACEMENT_3D('',#25,#1763,#1764);
#1766 = PLANE('',#1765);
#1767 = FACE_SURFACE('',(#1762),#1766,.T.);
#1768 = POLY_LOOP('',(#18,#55,#56));
#1769 = FACE_OUTER_BOUND('',#1768,.T.);
#1770 = DIRECTION('',(1.000000,0.000000,0.000000));
#1771 = DIRECTION('',(0.000000,1.000000,0.000000));
#1772 = AXIS2_PLACEMENT_3D('',#18,#1770,#1771);
#1773 = PLANE('',#1772);
#1774 = FACE_SURFACE('',(#1769),#1773,.T.);
#1775 = POLY_LOOP('',(#18,#90,#54));
#1776 = FACE_OUTER_BOUND('',#1775,.T.);
#1777 = DIRECTION('',(0.000000,0.000000,1.000000));
#1778 = DIRECTION('',(1.000000,0.000000,0.000000));
#1779 = AXIS2_PLACEMENT_3D('',#18,#1777,#1778);
#1780 = PLANE('',#1779);
#1781 = FACE_SURFACE('',(#1776),#1780,.T.);
#1782 = POLY_LOOP('',(#23,#66,#24));
#1783 = FACE_OUTER_BOUND('',#1782,.T.);
#1784 = DIRECTION('',(0.237495,0.971389,0.000000));
#1785 = DIRECTION('',(1.000000,0.000000,0.000000));
#1786 = AXIS2_PLACEMENT_3D('',#23,#1784,#1785);
#1787 = PLANE('',#1786);
#1788 = FACE_SURFACE('',(#1783),#1787,.T.);
#1789 = POLY_LOOP('',(#18,#30,#78));
#1790 = FACE_OUTER_BOUND('',#1789,.T.);
#1791 = DIRECTION('',(0.000000,1.000000,0.000000));
#1792 = DIRECTION('',(1.000000,0.000000,0.000000));
#1793 = AXIS2_PLACEMENT_3D('',#18,#1791,#1792);
#1794 = PLANE('',#1793);
#1795 = FACE_SURFACE('',(#1790),#1794,.T.);
#1796 = POLY_LOOP('',(#52,#18,#79));
#1797 = FACE_OUTER_BOUND('',#1796,.T.);
#1798 = DIRECTION('',(0.000000,1.000000,0.000000));
#1799 = DIRECTION('',(1.000000,0.000000,0.000000));
#1800 = AXIS2_PLACEMENT_3D('',#52,#1798,#1799);
#1801 = PLANE('',#1800);
#1802 = FACE_SURFACE('',(#1797),#1801,.T.);
#1803 = POLY_LOOP('',(#18,#70,#63));
#1804 = FACE_OUTER_BOUND('',#1803,.T.);
#1805 = DIRECTION('',(0.000000,1.000000,0.000000));
#1806 = DIRECTION('',(1.000000,0.000000,0.000000));
#1807 = AXIS2_PLACEMENT_3D('',#18,#1805,#1806);
#1808 = PLANE('',#1807);
#1809 = FACE_SURFACE('',(#1804),#1808,.T.);
#1810 = POLY_LOOP('',(#50,#18,#58));
#1811 = FACE_OUTER_BOUND('',#1810,.T.);
#1812 = DIRECTION('',(0.000000,1.000000,0.000000));
#1813 = DIRECTION('',(1.000000,0.000000,0.000000));
#1814 = AXIS2_PLACEMENT_3D('',#50,#1812,#1813);
#1815 = PLANE('',#1814);
#1816 = FACE_SURFACE('',(#1811),#1815,.T.);
#1817 = POLY_LOOP('',(#69,#84,#82));
#1818 = FACE_OUTER_BOUND('',#1817,.T.);
#1819 = DIRECTION('',(0.000000,1.000000,0.000000));
#1820 = DIRECTION('',(1.000000,0.000000,0.000000));
#1821 = AXIS2_PLACEMENT_3D('',#69,#1819,#1820);
#1822 = PLANE('',#1821);
#1823 = FACE_SURFACE('',(#1818),#1822,.T.);
#1824 = POLY_LOOP('',(#63,#53,#54));
#1825 = FACE_OUTER_BOUND('',#1824,.T.);
#1826 = DIRECTION('',(0.000000,0.000000,1.000000));
#1827 = DIRECTION('',(1.000000,0.000000,0.000000));
#1828 = AXIS2_PLACEMENT_3D('',#63,#1826,#1827);
#1829 = PLANE('',#1828);
#1830 = FACE_SURFACE('',(#1825),#1829,.T.);
#1831 = POLY_LOOP('',(#23,#66,#24));
#1832 = FACE_OUTER_BOUND('',#1831,.T.);
#1833 = DIRECTION('',(1.000000,0.000999,0.000000));
#1834 = DIRECTION('',(0.000000,1.000000,0.000000));
#1835 = AXIS2_PLACEMENT_3D('',#23,#1833,#1834);
#1836 = PLANE('',#1835);
#1837 = FACE_SURFACE('',(#1832),#1836,.T.);
#1838 = POLY_LOOP('',(#56,#71,#72));
#1839 = FACE_OUTER_BOUND('',#1838,.T.);
#1840 = DIRECTION('',(0.000000,0.000000,1.000000));
#1841 = DIRECTION('',(1.000000,0.000000,0.000000));
#1842 = AXIS2_PLACEMENT_3D('',#56,#1840,#1841);
#1843 = PLANE('',#1842);
#1844 = FACE_SURFACE('',(#1839),#1843,.T.);
#1845 = POLY_LOOP('',(#25,#18,#53));
#1846 = FACE_OUTER_BOUND('',#1845,.T.);
#1847 = DIRECTION('',(0.010902,0.999808,0.016301));
#1848 = DIRECTION('',(1.000000,0.000000,0.000000));
#1849 = AXIS2_PLACEMENT_3D('',#25,#1847,#1848);
#1850 = PLANE('',#1849);
#1851 = FACE_SURFACE('',(#1846),#1850,.T.);
#1852 = POLY_LOOP('',(#18,#23,#66));
#1853 = FACE_OUTER_BOUND('',#1852,.T.);
#1854 = DIRECTION('',(0.000000,0.000000,1.000000));
#1855 = DIRECTION('',(1.000000,0.000000,0.000000));
#1856 = AXIS2_PLACEMENT_3D('',#18,#1854,#1855);
#1857 = PLANE('',#1856);
#1858 = FACE_SURFACE('',(#1853),#1857,.T.);
#1859 = POLY_LOOP('',(#47,#48,#52));
#1860 = FACE_OUTER_BOUND('',#1859,.T.);
#1861 = DIRECTION('',(0.000000,0.000000,1.000000));
#1862 = DIRECTION('',(1.000000,0.000000,0.000000));
#1863 = AXIS2_PLACEMENT_3D('',#47,#1861,#1862);
#1864 = PLANE('',#1863);
#1865 = FACE_SURFACE('',(#1860),#1864,.T.);
#1866 = POLY_LOOP('',(#49,#50,#18));
#1867 = FACE_OUTER_BOUND('',#1866,.T.);
#1868 = DIRECTION('',(0.000000,0.000000,1.000000));
#1869 = DIRECTION('',(1.000000,0.000000,0.000000));
#1870 = AXIS2_PLACEMENT_3D('',#49,#1868,#1869);
#1871 = PLANE('',#1870);
#1872 = FACE_SURFACE('',(#1867),#1871,.T.);
#1873 = POLY_LOOP('',(#18,#53,#54));
#1874 = FACE_OUTER_BOUND('',#1873,.T.);
#1875 = DIRECTION('',(0.000000,0.000000,1.000000));
#1876 = DIRECTION('',(1.000000,0.000000,0.000000));
#1877 = AXIS2_PLACEMENT_3D('',#18,#1875,#1876);
#1878 = PLANE('',#1877);
#1879 = FACE_SURFACE('',(#1874),#1878,.T.);
#1880 = POLY_LOOP('',(#26,#94,#95));
#1881 = FACE_OUTER_BOUND('',#1880,.T.);
#1882 = DIRECTION('',(1.000000,0.000999,0.000000));
#1883 = DIRECTION('',(0.000000,1.000000,0.000000));
#1884 = AXIS2_PLACEMENT_3D('',#26,#1882,#1883);
#1885 = PLANE('',#1884);
#1886 = FACE_SURFACE('',(#1881),#1885,.T.);
#1887 = POLY_LOOP('',(#18,#49,#50));
#1888 = FACE_OUTER_BOUND('',#1887,.T.);
#1889 = DIRECTION('',(0.997879,0.065098,0.000000));
#1890 = DIRECTION('',(0.000000,1.000000,0.000000));
#1891 = AXIS2_PLACEMENT_3D('',#18,#1889,#1890);
#1892 = PLANE('',#1891);
#1893 = FACE_SURFACE('',(#1888),#1892,.T.);
#1894 = POLY_LOOP('',(#19,#36,#18));
#1895 = FACE_OUTER_BOUND('',#1894,.T.);
#1896 = DIRECTION('',(0.000000,0.000000,1.000000));
#1897 = DIRECTION('',(1.000000,0.000000,0.000000));
#1898 = AXIS2_PLACEMENT_3D('',#19,#1896,#1897);
#1899 = PLANE('',#1898);
#1900 = FACE_SURFACE('',(#1895),#1899,.T.);
#1901 = POLY_LOOP('',(#18,#58,#59));
#1902 = FACE_OUTER_BOUND('',#1901,.T.);
#1903 = DIRECTION('',(0.000000,0.000000,1.000000));
#1904 = DIRECTION('',(1.000000,0.000000,0.000000));
#1905 = AXIS2_PLACEMENT_3D('',#18,#1903,#1904);
#1906 = PLANE('',#1905);
#1907 = FACE_SURFACE('',(#1902),#1906,.T.);
#1908 = POLY_LOOP('',(#84,#82,#83));
#1909 = FACE_OUTER_BOUND('',#1908,.T.);
#1910 = DIRECTION('',(0.000000,1.000000,0.000000));
#1911 = DIRECTION('',(1.000000,0.000000,0.000000));
#1912 = AXIS2_PLACEMENT_3D('',#84,#1910,#1911);
#1913 = PLANE('',#1912);
#1914 = FACE_SURFACE('',(#1909),#1913,.T.);
#1915 = POLY_LOOP('',(#18,#29,#18));
#1916 = FACE_OUTER_BOUND('',#1915,.T.);
#1917 = DIRECTION('',(1.000000,0.000000,0.000000));
#1918 = DIRECTION('',(0.000000,1.000000,0.000000));
#1919 = AXIS2_PLACEMENT_3D('',#18,#1917,#1918);
#1920 = PLANE('',#1919);
#1921 = FACE_SURFACE('',(#1916),#1920,.T.);
#1922 = POLY_LOOP('',(#62,#24,#58));
#1923 = FACE_OUTER_BOUND('',#1922,.T.);
#1924 = DIRECTION('',(1.000000,0.000000,0.000000));
#1925 = DIRECTION('',(0.000000,1.000000,0.000000));
#1926 = AXIS2_PLACEMENT_3D('',#62,#1924,#1925);
#1927 = PLANE('',#1926);
#1928 = FACE_SURFACE('',(#1923),#1927,.T.);
#1929 = CLOSED_SHELL('',(#108,#115,#122,#129,#136,#143,#150,#157,#164,#171,#178,#185,#192,#199,#206,#213,#220,#227,#234,#241,#248,#255,#262,#269,#276,#283,#290,#297,#304,#311,#318,#325,#332,#339,#346,#353,#360,#367,#374,#381,#388,#395,#402,#409,#416,#423,#430,#437,#444,#451,#458,#465,#472,#479,#486,#493,#500,#507,#514,#521,#528,#535,#542,#549,#556,#563,#570,#577,#584,#591,#598,#605,#612,#619,#626,#633,#640,#647,#654,#661,#668,#675,#682,#689,#696,#703,#710,#717,#724,#731,#738,#745,#752,#759,#766,#773,#780,#787,#794,#801,#808,#815,#822,#829,#836,#843,#850,#857,#864,#871,#878,#885,#892,#899,#906,#913,#920,#927,#934,#941,#948,#955,#962,#969,#976,#983,#990,#997,#1004,#1011,#1018,#1025,#1032,#1039,#1046,#1053,#1060,#1067,#1074,#1081,#1088,#1095,#1102,#1109,#1116,#1123,#1130,#1137,#1144,#1151,#1158,#1165,#1172,#1179,#1186,#1193,#1200,#1207,#1214,#1221,#1228,#1235,#1242,#1249,#1256,#1263,#1270,#1277,#1284,#1291,#1298,#1305,#1312,#1319,#1326,#1333,#1340,#1347,#1354,#1361,#1368,#1375,#1382,#1389,#1396,#1403,#1410,#1417,#1424,#1431,#1438,#1445,#1452,#1459,#1466,#1473,#1480,#1487,#1494,#1501,#1508,#1515,#1522,#1529,#1536,#1543,#1550,#1557,#1564,#1571,#1578,#1585,#1592,#1599,#1606,#1613,#1620,#1627,#1634,#1641,#1648,#1655,#1662,#1669,#1676,#1683,#1690,#1697,#1704,#1711,#1718,#1725,#1732,#1739,#1746,#1753,#1760,#1767,#1774,#1781,#1788,#1795,#1802,#1809,#1816,#1823,#1830,#1837,#1844,#1851,#1858,#1865,#1872,#1879,#1886,#1893,#1900,#1907,#1914,#1921,#1928));
#1930 = FACETED_BREP('esp32_30pin_CH340',#1929);
#1931 = ADVANCED_BREP_SHAPE_REPRESENTATION('esp32_30pin_CH340',(#16,#1930),#12);
#1932 = SHAPE_DEFINITION_REPRESENTATION(#7,#1931);
ENDSEC;
END-ISO-10303-21;
