solid OpenSCAD_Model
  facet normal -1 0 0
    outer loop
      vertex -12.7 -19.05 -5.8
      vertex -12.7 19.05 -0.799999
      vertex -12.7 19.05 -5.8
    endloop
  endfacet
  facet normal -1 -0 0
    outer loop
      vertex -12.7 19.05 -0.799999
      vertex -12.7 -19.05 -5.8
      vertex -12.7 -19.05 -0.799999
    endloop
  endfacet
  facet normal 0 0 -1
    outer loop
      vertex 14.25 -26.25 -0.799999
      vertex 12.7 -19.05 -0.799999
      vertex 14.25 26.25 -0.799999
    endloop
  endfacet
  facet normal 0 0 -1
    outer loop
      vertex 14.25 -26.25 -0.799999
      vertex 10.16 -19.05 -0.799999
      vertex 12.7 -19.05 -0.799999
    endloop
  endfacet
  facet normal 0 0 -1
    outer loop
      vertex 10.16 -19.05 -0.799999
      vertex -10.16 -19.05 -0.799999
      vertex 10.16 19.05 -0.799999
    endloop
  endfacet
  facet normal 0 0 -1
    outer loop
      vertex 14.25 -26.25 -0.799999
      vertex -10.16 -19.05 -0.799999
      vertex 10.16 -19.05 -0.799999
    endloop
  endfacet
  facet normal 0 0 -1
    outer loop
      vertex -14.25 -26.25 -0.799999
      vertex -10.16 -19.05 -0.799999
      vertex 14.25 -26.25 -0.799999
    endloop
  endfacet
  facet normal -0 0 -1
    outer loop
      vertex -12.7 -19.05 -0.799999
      vertex -14.25 -26.25 -0.799999
      vertex -12.7 19.05 -0.799999
    endloop
  endfacet
  facet normal -0 0 -1
    outer loop
      vertex -10.16 -19.05 -0.799999
      vertex -14.25 -26.25 -0.799999
      vertex -12.7 -19.05 -0.799999
    endloop
  endfacet
  facet normal 0 0 -1
    outer loop
      vertex 12.7 19.05 -0.799999
      vertex 14.25 26.25 -0.799999
      vertex 12.7 -19.05 -0.799999
    endloop
  endfacet
  facet normal 0 0 -1
    outer loop
      vertex 10.16 19.05 -0.799999
      vertex 14.25 26.25 -0.799999
      vertex 12.7 19.05 -0.799999
    endloop
  endfacet
  facet normal 0 0 -1
    outer loop
      vertex -10.16 19.05 -0.799999
      vertex 10.16 19.05 -0.799999
      vertex -10.16 -19.05 -0.799999
    endloop
  endfacet
  facet normal 0 0 -1
    outer loop
      vertex -10.16 19.05 -0.799999
      vertex 14.25 26.25 -0.799999
      vertex 10.16 19.05 -0.799999
    endloop
  endfacet
  facet normal 0 0 -1
    outer loop
      vertex -14.25 26.25 -0.799999
      vertex -10.16 19.05 -0.799999
      vertex -12.7 19.05 -0.799999
    endloop
  endfacet
  facet normal 0 0 -1
    outer loop
      vertex -10.16 19.05 -0.799999
      vertex -14.25 26.25 -0.799999
      vertex 14.25 26.25 -0.799999
    endloop
  endfacet
  facet normal 0 0 -1
    outer loop
      vertex -14.25 26.25 -0.799999
      vertex -12.7 19.05 -0.799999
      vertex -14.25 -26.25 -0.799999
    endloop
  endfacet
  facet normal 1 -0 0
    outer loop
      vertex -10.16 -19.05 -0.799999
      vertex -10.16 19.05 -5.8
      vertex -10.16 19.05 -0.799999
    endloop
  endfacet
  facet normal 1 0 0
    outer loop
      vertex -10.16 19.05 -5.8
      vertex -10.16 -19.05 -0.799999
      vertex -10.16 -19.05 -5.8
    endloop
  endfacet
  facet normal 0 0 -1
    outer loop
      vertex -12.7 -19.05 -5.8
      vertex -10.16 19.05 -5.8
      vertex -10.16 -19.05 -5.8
    endloop
  endfacet
  facet normal -0 0 -1
    outer loop
      vertex -10.16 19.05 -5.8
      vertex -12.7 -19.05 -5.8
      vertex -12.7 19.05 -5.8
    endloop
  endfacet
  facet normal 0 -1 0
    outer loop
      vertex -12.7 -19.05 -5.8
      vertex -10.16 -19.05 -0.799999
      vertex -12.7 -19.05 -0.799999
    endloop
  endfacet
  facet normal 0 -1 -0
    outer loop
      vertex -10.16 -19.05 -0.799999
      vertex -12.7 -19.05 -5.8
      vertex -10.16 -19.05 -5.8
    endloop
  endfacet
  facet normal 0 1 -0
    outer loop
      vertex -10.16 19.05 -5.8
      vertex -12.7 19.05 -0.799999
      vertex -10.16 19.05 -0.799999
    endloop
  endfacet
  facet normal 0 1 0
    outer loop
      vertex -12.7 19.05 -0.799999
      vertex -10.16 19.05 -5.8
      vertex -12.7 19.05 -5.8
    endloop
  endfacet
  facet normal -1 0 0
    outer loop
      vertex 10.16 -19.05 -5.8
      vertex 10.16 19.05 -0.799999
      vertex 10.16 19.05 -5.8
    endloop
  endfacet
  facet normal -1 -0 0
    outer loop
      vertex 10.16 19.05 -0.799999
      vertex 10.16 -19.05 -5.8
      vertex 10.16 -19.05 -0.799999
    endloop
  endfacet
  facet normal 1 -0 0
    outer loop
      vertex 12.7 -19.05 -0.799999
      vertex 12.7 19.05 -5.8
      vertex 12.7 19.05 -0.799999
    endloop
  endfacet
  facet normal 1 0 0
    outer loop
      vertex 12.7 19.05 -5.8
      vertex 12.7 -19.05 -0.799999
      vertex 12.7 -19.05 -5.8
    endloop
  endfacet
  facet normal 0 0 -1
    outer loop
      vertex 10.16 -19.05 -5.8
      vertex 12.7 19.05 -5.8
      vertex 12.7 -19.05 -5.8
    endloop
  endfacet
  facet normal -0 0 -1
    outer loop
      vertex 12.7 19.05 -5.8
      vertex 10.16 -19.05 -5.8
      vertex 10.16 19.05 -5.8
    endloop
  endfacet
  facet normal 0 -1 0
    outer loop
      vertex 10.16 -19.05 -5.8
      vertex 12.7 -19.05 -0.799999
      vertex 10.16 -19.05 -0.799999
    endloop
  endfacet
  facet normal 0 -1 -0
    outer loop
      vertex 12.7 -19.05 -0.799999
      vertex 10.16 -19.05 -5.8
      vertex 12.7 -19.05 -5.8
    endloop
  endfacet
  facet normal 0 1 -0
    outer loop
      vertex 12.7 19.05 -5.8
      vertex 10.16 19.05 -0.799999
      vertex 12.7 19.05 -0.799999
    endloop
  endfacet
  facet normal 0 1 0
    outer loop
      vertex 10.16 19.05 -0.799999
      vertex 12.7 19.05 -5.8
      vertex 10.16 19.05 -5.8
    endloop
  endfacet
  facet normal -1 0 0
    outer loop
      vertex -14.25 -26.25 -0.799999
      vertex -14.25 26.25 0.799999
      vertex -14.25 26.25 -0.799999
    endloop
  endfacet
  facet normal -1 -0 0
    outer loop
      vertex -14.25 26.25 0.799999
      vertex -14.25 -26.25 -0.799999
      vertex -14.25 -26.25 0.799999
    endloop
  endfacet
  facet normal -0 0 1
    outer loop
      vertex -14.25 26.25 0.799999
      vertex -3.75 22.25 0.799999
      vertex -3.75 26.25 0.799999
    endloop
  endfacet
  facet normal 0 0 1
    outer loop
      vertex -9 18.5 0.799999
      vertex -14.25 26.25 0.799999
      vertex -9 -6.5 0.799999
    endloop
  endfacet
  facet normal 0 0 1
    outer loop
      vertex -3.75 22.25 0.799999
      vertex -14.25 26.25 0.799999
      vertex -9 18.5 0.799999
    endloop
  endfacet
  facet normal 0 0 1
    outer loop
      vertex 9 -6.5 0.799999
      vertex 14.25 26.25 0.799999
      vertex 9 18.5 0.799999
    endloop
  endfacet
  facet normal 0 0 1
    outer loop
      vertex 3.75 22.25 0.799999
      vertex 14.25 26.25 0.799999
      vertex 3.75 26.25 0.799999
    endloop
  endfacet
  facet normal 0 0 1
    outer loop
      vertex 14.25 26.25 0.799999
      vertex 3.75 22.25 0.799999
      vertex 9 18.5 0.799999
    endloop
  endfacet
  facet normal -0 0 1
    outer loop
      vertex -3.75 22.25 0.799999
      vertex 9 18.5 0.799999
      vertex 3.75 22.25 0.799999
    endloop
  endfacet
  facet normal 0 0 1
    outer loop
      vertex 9 18.5 0.799999
      vertex -3.75 22.25 0.799999
      vertex -9 18.5 0.799999
    endloop
  endfacet
  facet normal 0 0 1
    outer loop
      vertex 14.25 26.25 0.799999
      vertex 9 -6.5 0.799999
      vertex 14.25 -26.25 0.799999
    endloop
  endfacet
  facet normal -0 0 1
    outer loop
      vertex -9 -6.5 0.799999
      vertex 14.25 -26.25 0.799999
      vertex 9 -6.5 0.799999
    endloop
  endfacet
  facet normal 0 0 1
    outer loop
      vertex -9 -6.5 0.799999
      vertex -14.25 -26.25 0.799999
      vertex 14.25 -26.25 0.799999
    endloop
  endfacet
  facet normal 0 0 1
    outer loop
      vertex -14.25 -26.25 0.799999
      vertex -9 -6.5 0.799999
      vertex -14.25 26.25 0.799999
    endloop
  endfacet
  facet normal 0 0 -1
    outer loop
      vertex -3.75 26.25 0.799999
      vertex 3.75 28.25 0.799999
      vertex 3.75 26.25 0.799999
    endloop
  endfacet
  facet normal -0 0 -1
    outer loop
      vertex 3.75 28.25 0.799999
      vertex -3.75 26.25 0.799999
      vertex -3.75 28.25 0.799999
    endloop
  endfacet
  facet normal 1 -0 0
    outer loop
      vertex 14.25 -26.25 0.799999
      vertex 14.25 26.25 -0.799999
      vertex 14.25 26.25 0.799999
    endloop
  endfacet
  facet normal 1 0 0
    outer loop
      vertex 14.25 26.25 -0.799999
      vertex 14.25 -26.25 0.799999
      vertex 14.25 -26.25 -0.799999
    endloop
  endfacet
  facet normal 0 1 -0
    outer loop
      vertex 14.25 26.25 -0.799999
      vertex 3.75 26.25 0.799999
      vertex 14.25 26.25 0.799999
    endloop
  endfacet
  facet normal 0 1 0
    outer loop
      vertex 3.75 26.25 0.799999
      vertex 14.25 26.25 -0.799999
      vertex -3.75 26.25 0.799999
    endloop
  endfacet
  facet normal 0 1 0
    outer loop
      vertex -14.25 26.25 -0.799999
      vertex -3.75 26.25 0.799999
      vertex 14.25 26.25 -0.799999
    endloop
  endfacet
  facet normal 0 1 0
    outer loop
      vertex -3.75 26.25 0.799999
      vertex -14.25 26.25 -0.799999
      vertex -14.25 26.25 0.799999
    endloop
  endfacet
  facet normal 0 -1 0
    outer loop
      vertex -14.25 -26.25 -0.799999
      vertex 14.25 -26.25 0.799999
      vertex -14.25 -26.25 0.799999
    endloop
  endfacet
  facet normal 0 -1 -0
    outer loop
      vertex 14.25 -26.25 0.799999
      vertex -14.25 -26.25 -0.799999
      vertex 14.25 -26.25 -0.799999
    endloop
  endfacet
  facet normal -1 0 0
    outer loop
      vertex -9 -6.5 0.799999
      vertex -9 18.5 3.8
      vertex -9 18.5 0.799999
    endloop
  endfacet
  facet normal -1 -0 0
    outer loop
      vertex -9 18.5 3.8
      vertex -9 -6.5 0.799999
      vertex -9 -6.5 3.8
    endloop
  endfacet
  facet normal -0 0 1
    outer loop
      vertex -9 18.5 3.8
      vertex 9 -6.5 3.8
      vertex 9 18.5 3.8
    endloop
  endfacet
  facet normal 0 0 1
    outer loop
      vertex 9 -6.5 3.8
      vertex -9 18.5 3.8
      vertex -9 -6.5 3.8
    endloop
  endfacet
  facet normal 1 -0 0
    outer loop
      vertex 9 -6.5 3.8
      vertex 9 18.5 0.799999
      vertex 9 18.5 3.8
    endloop
  endfacet
  facet normal 1 0 0
    outer loop
      vertex 9 18.5 0.799999
      vertex 9 -6.5 3.8
      vertex 9 -6.5 0.799999
    endloop
  endfacet
  facet normal 0 1 -0
    outer loop
      vertex 9 18.5 0.799999
      vertex -9 18.5 3.8
      vertex 9 18.5 3.8
    endloop
  endfacet
  facet normal 0 1 0
    outer loop
      vertex -9 18.5 3.8
      vertex 9 18.5 0.799999
      vertex -9 18.5 0.799999
    endloop
  endfacet
  facet normal 0 -1 0
    outer loop
      vertex -9 -6.5 0.799999
      vertex 9 -6.5 3.8
      vertex -9 -6.5 3.8
    endloop
  endfacet
  facet normal 0 -1 -0
    outer loop
      vertex 9 -6.5 3.8
      vertex -9 -6.5 0.799999
      vertex 9 -6.5 0.799999
    endloop
  endfacet
  facet normal -1 0 0
    outer loop
      vertex -3.75 26.25 0.799999
      vertex -3.75 28.25 3.8
      vertex -3.75 28.25 0.799999
    endloop
  endfacet
  facet normal -1 0 0
    outer loop
      vertex -3.75 22.25 3.8
      vertex -3.75 26.25 0.799999
      vertex -3.75 22.25 0.799999
    endloop
  endfacet
  facet normal -1 0 0
    outer loop
      vertex -3.75 26.25 0.799999
      vertex -3.75 22.25 3.8
      vertex -3.75 28.25 3.8
    endloop
  endfacet
  facet normal -0 0 1
    outer loop
      vertex -3.75 28.25 3.8
      vertex 3.75 22.25 3.8
      vertex 3.75 28.25 3.8
    endloop
  endfacet
  facet normal 0 0 1
    outer loop
      vertex 3.75 22.25 3.8
      vertex -3.75 28.25 3.8
      vertex -3.75 22.25 3.8
    endloop
  endfacet
  facet normal 1 0 0
    outer loop
      vertex 3.75 28.25 3.8
      vertex 3.75 26.25 0.799999
      vertex 3.75 28.25 0.799999
    endloop
  endfacet
  facet normal 1 -0 0
    outer loop
      vertex 3.75 22.25 3.8
      vertex 3.75 26.25 0.799999
      vertex 3.75 28.25 3.8
    endloop
  endfacet
  facet normal 1 0 0
    outer loop
      vertex 3.75 26.25 0.799999
      vertex 3.75 22.25 3.8
      vertex 3.75 22.25 0.799999
    endloop
  endfacet
  facet normal 0 -1 0
    outer loop
      vertex -3.75 22.25 0.799999
      vertex 3.75 22.25 3.8
      vertex -3.75 22.25 3.8
    endloop
  endfacet
  facet normal 0 -1 -0
    outer loop
      vertex 3.75 22.25 3.8
      vertex -3.75 22.25 0.799999
      vertex 3.75 22.25 0.799999
    endloop
  endfacet
  facet normal 0 1 -0
    outer loop
      vertex 3.75 28.25 0.799999
      vertex -3.75 28.25 3.8
      vertex 3.75 28.25 3.8
    endloop
  endfacet
  facet normal 0 1 0
    outer loop
      vertex -3.75 28.25 3.8
      vertex 3.75 28.25 0.799999
      vertex -3.75 28.25 0.799999
    endloop
  endfacet
endsolid OpenSCAD_Model
